<?xml version="1.0" standalone="no"?>
<!DOCTYPE svg PUBLIC "-//W3C//DTD SVG 20010904//EN"
 "http://www.w3.org/TR/2001/REC-SVG-20010904/DTD/svg10.dtd">
<svg version="1.0" xmlns="http://www.w3.org/2000/svg"
 width="512.000000pt" height="512.000000pt" viewBox="0 0 512.000000 512.000000"
 preserveAspectRatio="xMidYMid meet">

<g transform="translate(0.000000,512.000000) scale(0.100000,-0.100000)"
fill="#000000" stroke="none">
<path d="M2420 4884 c-336 -29 -617 -105 -889 -240 -456 -226 -817 -582 -1043
-1029 -126 -248 -201 -494 -239 -775 -16 -122 -16 -438 0 -560 59 -438 234
-849 505 -1186 78 -97 253 -272 351 -350 322 -257 708 -423 1140 -490 207 -32
526 -23 760 22 810 155 1498 758 1758 1540 89 269 120 459 120 744 0 377 -75
699 -239 1029 -350 706 -1011 1176 -1796 1280 -86 12 -358 21 -428 15z m351
-194 c496 -50 943 -263 1299 -620 245 -244 411 -510 517 -827 151 -454 151
-914 -2 -1370 -103 -310 -274 -582 -515 -823 -248 -249 -513 -412 -840 -521
-450 -148 -906 -146 -1360 7 -311 105 -581 274 -820 514 -249 248 -412 513
-521 840 -221 670 -102 1389 323 1958 140 187 377 403 582 531 257 160 603
279 901 310 117 12 318 12 436 1z"/>
<path d="M2270 4494 c-628 -95 -1173 -492 -1460 -1064 -89 -177 -155 -389
-185 -591 -20 -140 -20 -418 0 -558 62 -420 252 -799 554 -1102 277 -276 603
-451 1000 -536 118 -26 141 -28 381 -28 240 0 263 2 381 28 397 85 725 261
1000 536 277 278 451 603 536 1000 26 118 28 141 28 381 0 240 -2 263 -28 381
-177 828 -815 1432 -1638 1553 -134 20 -437 20 -569 0z m1380 -874 c78 -22
142 -93 161 -179 21 -97 -34 -206 -124 -250 -43 -21 -48 -21 -1127 -21 -1079
0 -1084 0 -1127 21 -90 44 -145 153 -124 250 18 83 73 148 150 175 29 10 251
13 1096 14 666 0 1073 -4 1095 -10z m39 -856 c169 -85 169 -323 0 -408 l-53
-26 -1076 0 -1076 0 -53 26 c-95 48 -145 153 -121 254 17 70 58 122 121 154
l53 26 1076 0 1076 0 53 -26z m-2 -835 c90 -44 145 -153 124 -250 -20 -94 -98
-172 -184 -184 -23 -3 -519 -5 -1102 -3 -980 3 -1062 4 -1091 20 -119 65 -165
212 -101 321 28 47 73 88 117 106 16 6 422 10 1109 10 1080 1 1085 1 1128 -20z"/>
</g>
</svg>
