<svg xmlns="http://www.w3.org/2000/svg" width="48" height="48" viewBox="0 0 256 256" fill="none" xmlns:v="https://vecta.io/nano"><svg width="256" height="256"><rect width="256" height="256" rx="60" fill="#3b3c37"/><path d="M165.164 95.913l-.045-.428-.694.059.045.428.694-.059zm4.667 11.226l.015.236.488-.044c-.015-.148.044-.384.147-.68l-.044-.428c-.207.015-.414.325-.606.916zm-18.212 14.136c-.03-.399-1.271-1.95-3.723-4.683-.044-.502.798-1.255 2.526-2.245l4.934-4.298c1.108-1.404 1.758-3.678 1.95-6.839l-.059-.724c-.192-2.186-1.773-3.944-4.772-5.288-1.772-1.197-4.963-1.861-9.571-1.979-3.811.325-8.789 1.684-14.919 4.092-1.684 1.211-3.604 2.423-5.761 3.634l.03.369c.133-.015.34-.089.576-.251.251-.03.399.089.414.325l.369-.192.177-.015.015.163c.015.192-1.315 1.24-4.003 3.116l.207.384-.178.015-.443-.162c.015.133-.177.221-.546.251l.015.162.428.532c-.133.015-.34-.044-.62-.148-.621.059-1.226.384-1.832 1.005l.251-1.093c.901-3.885 1.521-7.327 1.846-10.311l-.044-.192c-.62-.399-1.226-.96-1.787-1.669.015-.458.015-.724 0-.783l-.044-.163-.178.044c-1.95 2.925-5.701 7.918-11.27 14.978-4.239 5.022-6.425 7.814-6.558 8.375-1.728 1.788-2.555 2.866-2.467 3.235-.458.296-.65.591-.576.916-.133.03-.222-.015-.251-.148-.739 1.197-1.832 1.965-3.294 2.305l-1.536.354c-.207.044-.31.192-.295.443l.044.192.576-.133.044.163-1.3.502-2.304.532-1.211.074c-.177.177.96-.015.517.088l-1.507.355c-.916.207-1.418.133-1.507-.237l-.177.045c.029.162.044.28.015.384l-.089-.37-1.211.281c-.089-.561-1.728-2.6-4.904-6.115-.059-.68 1.064-1.669 3.353-2.954l6.47-5.687c1.448-1.861 2.304-4.845 2.585-8.951l-.089-.961c-.251-2.895-2.349-5.229-6.293-7.031-2.334-1.581-6.529-2.422-12.585-2.555-5.022.428-11.581 2.216-19.646 5.332-2.216 1.61-4.742 3.206-7.578 4.786l.044.502c.192-.014.443-.118.753-.295.325-.03.502.118.532.414l.502-.281.251-.015.015.237c.015.236-1.743 1.61-5.303 4.121l.281.443-.251.015-.547-.192c.015.147-.236.251-.753.295l.029.266.591.65c-.192.015-.458-.045-.798-.163-1.152.104-2.275.931-3.383 2.497l.281.443c.96-.887 1.521-1.33 1.684-1.344l.059.723c-.163.015-.414.119-.753.296l.606.916c1.167-1.256 2.452-2.334 3.855-3.235.694.177 1.064.399 1.078.635l.532-.044c3.811-2.822 7.578-4.86 11.315-6.116l.044.503c-.694 1.034-1.167 1.565-1.418 1.595.029.354.148.665.369.93.059.636-1.64 4.919-5.081 12.836-7.814 18.405-14.372 32.024-19.705 40.828.015.177.118.413.31.709 1.315-.311 2.142-.636 2.496-.946l.281-.029.044.502.487-.044.502-.281c.015.148.177.222.517.192l.044.502c.044.488-.236 1.226-.827 2.245-.532.606-1.108 1.876-1.713 3.811l.015.237.487-.045c2.127-2.378 3.737-4.712 4.845-6.986 6.204-1.817 10.931-3.604 14.21-5.362 3.294-.281 5.805-1.152 7.519-2.585l-.03-.266-1.241.369-.281.03-.029-.266c2.422-.369 4.092-.901 5.022-1.64 4.712-3.633 8.272-6.204 10.679-7.725 4.948-3.634 8.168-7.179 9.631-10.62l.827-.192c.694-.03 1.078-.045 1.182-.074-.029-.133.029-.207.163-.237 1.108-.118.576.074 1.285-.088l1.861-.429c-.118.03-.162.089-.133.207l.281-.177a.43.43 0 0 1-.148-.03l.31-.073-.148.088c.207.03.428.015.679-.044l.133.546-8.464 13.457-1.876 2.348-.916 3.073.177-.044.916-.384-.295 1.196.089.354.251.311c-.118.029-.162.103-.133.236l.044.192.384-.089c.561-.487.798-.93.709-1.329.606.103 1.004.148 1.211.089l.044.192c-.369.088-.561.384-.591.886l.044.192.207-.044c3.072-3.353 10.606-14.831 16.647-22.615-.192-.842 2.954-2.009 9.454-3.515l.206-.045c.237 1.02-.266 3.486-1.506 7.401-.798 2.363-1.182 3.663-1.123 3.87-1.034 3.146-1.521 4.845-1.462 5.11l-2.305 7.548c-1.492 3.87-2.629 7.932-3.427 12.216.133-.029.34-.015.635.059l.325-.28c.029.132.118.177.251.147l-.133-.546 1.004-.03c.295-.074.547-.443.753-1.122-.044-1.02.163-1.566.62-1.684.62-2.423 1.004-3.634 1.137-3.678.576-2.408 1.005-3.782 1.285-4.121.872-3.132 1.507-4.742 1.921-4.845l.088.384-.635 1.639c-1.108 4.919-2.23 8.804-3.368 11.655l.325 1.418.207-.045c2.748-5.908 6.706-17.607 11.861-35.096.148-1.536.887-2.732 2.201-3.574l-.295-.31-.045-.163c.591-.133 1.005-.369 1.241-.694-.029-.133-.546-.325-1.551-.591l2.57-11.019c.562-.502.887-.768.99-.768l.044.561c-.133.015-.339.089-.576.251l.488.694c.886-.96 1.846-1.787 2.895-2.481.532.148.797.325.827.502l.384-.03c2.925-2.141 5.79-3.678 8.612-4.608l.029.369c-.517.783-.871 1.182-1.063 1.197.029.266.103.502.236.709.044.487-1.226 3.737-3.826 9.763-5.938 13.959-10.916 24.284-14.963 30.99.015.133.104.31.266.546.99-.236 1.625-.487 1.876-.723l.177-.015.03.369.413-.029.37-.192c.014.103.147.147.398.133l.03.398c.03.355-.177.916-.635 1.684-.429.458-.872 1.418-1.344 2.881l.014.192.385-.03c1.61-1.802 2.836-3.574 3.677-5.317 4.712-1.389 8.302-2.733 10.783-4.062 2.526-.222 4.432-.872 5.732-1.965l-.015-.192-.96.281-.207.014-.015-.192c1.832-.266 3.117-.679 3.811-1.226 3.575-2.747 6.278-4.712 8.109-5.864 5.702-4.15 8.361-8.139 8.036-11.964zm-.975.251l.133 1.492c-.177.369-.369.561-.547.576l-.221-2.541c.413.148.62.296.635.473zM38.798 109.502l-.251.015-.044-.458 1.019-.089.015.237c-.162.015-.413.103-.739.295zm-4.978 49.793c-.591-.265-1.123-.369-1.581-.325l-.059-.723c-.03-.281.133-.473.487-.547.325-.029.517.207.547.68.857-1.049 1.329-1.581 1.418-1.596l.547.222c-.177 1.477-.635 2.23-1.359 2.289zm53.191-55.642c-.251.029-.753-.753-1.477-2.304l-.044-.458c.473-.045.96.723 1.477 2.304l.044.458zm-.709-5.51l-.207.488-7.223-3.013c4.815.162 7.297 1.004 7.43 2.526zm-30.502 26.189l-1.019.089-.044-.458 1.019-.089.044.458zm-.827-15.731l.251-.015.059.724c-.236.015-.546.369-.931 1.049l-.044-.502c.458-.547.694-.96.665-1.256zm-2.142 5.052l.089.96-.251.015-.089-.96.251-.015zm-1.123 1.802l.487-.044c-.044.797-.266 1.226-.665 1.255l-.251.015c.31-.532.458-.945.428-1.226zm-.842 2.511l.281-.03.015.237-.458.768-.488.044-.015-.236c.488-.044.709-.296.665-.783zm-.827 2.26l-.148 1.211-.251.015-.103-1.197.502-.029zm-8.287 23.56c-.325 1.654-.679 2.496-1.049 2.526l-.015-.237c-.089-.812.266-1.58 1.063-2.289zm-1.521 3.294l.015.236c.029.325-.118.517-.443.532l-.015-.237c-.03-.28.118-.457.443-.531zm-.443 6.839l.768-.074.03.266c-.192.015-.443.118-.753.295l-.487.044c-.029-.251.133-.443.443-.531zm21.861-6.751c-4.313 2.127-6.854 3.575-7.607 4.328-4.668 1.625-6.987 2.63-6.942 3.028-4.151 1.64-6.883 2.851-8.198 3.604-.31.03-.753-.088-1.344-.354-.074-.842.31-1.521 1.123-2.068.724-.059 1.418.044 2.083.325.768-.399 2.112-.842 4.018-1.315l-.044-.502-1.536.133c.192-.266 1.669-.96 4.446-2.083l.768-.073.015.236c-1.315.118-2.038.502-2.201 1.196.03.31.207.443.532.414.99-.621 1.477-.99 1.462-1.093 1.876-.355 7.061-3.073 15.554-8.139l.044.458c.015.221-.709.842-2.171 1.905zm-13.028 4.284c1.241-.103 2.304-.606 3.191-1.477.355-.03.547.103.561.413-.606.06-1.773.562-3.471 1.537l-.251.014-.03-.487zm21.019-16.145l-6.514 5.155c-4.845 3.176-7.445 4.771-7.814 4.801-7.711 4.239-12.511 6.44-14.372 6.603l-.281.029c.236-.871 3.663-7.888 10.31-21.093 2.925-.251 7.533-1.61 13.811-4.092l1.536-.132c3.176-.281 5.554.339 7.12 1.816l.089.96c-1.182 3.398-2.481 5.377-3.885 5.953zm-12.733-7.164l1.049-.088.015.236-1.049.089-.015-.237zm14.727-2.496l.768-.074c.709.34 1.078.635 1.108.901l.015.236c-.679.06-1.315-.295-1.891-1.063zm2.083-11.861c-.679.812-2.541 2.201-5.583 4.15-1.004.089-4.742 1.537-11.211 4.373a2.05 2.05 0 0 0-1.034-.178l-.044-.457c-.074-.931.34-2.098 1.255-3.516.502-2.659 1.049-4.18 1.654-4.549l5.391-12.128c-.059-.753 1.093-1.329 3.456-1.728l.768-.074.059.695 4.328-.606c4.284-.369 6.514.502 6.691 2.585l.487-.044-.103-1.226.532-.045c1.256.695 1.935 1.537 2.024 2.526.059.68-.31 1.522-1.093 2.526-.325.03-.517-.207-.547-.679l-.532.044-.118 1.477c-2.171 3.25-3.752 4.919-4.727 5.007-.886 1.226-1.433 1.832-1.654 1.847zm3.309 8.493c-.443-.295-.798-.428-1.064-.413l-.059-.724.487-.045 1.078.636c.044.339-.103.517-.443.546zm3.427 4.062c.473.192.753.399.813.591l-.236.059.015.015c-.044 0-.103.015-.148.029l-.355.281-.089-.975zm.325 2.039l-.044-.192.62-.148.044.192-.62.148zm1.492 1.669c.635-.104.945-.148 2.127-.414l.044.192-2.245.517c.03-.103.059-.207.074-.295zm2.186.93c-.945.089-.739-.029-2.245.31l-.044-.192 1.876-.605.901-.207.089.355c-.399.088-.103.088-.576.339zm1.994-.472c-.222.059-.399-.045-.502-.296l.576-.133c.251-.059.413.045.473.296l-.547.133zm5.406-5.82l-.044-.192.931-.222.089.355-.975.059zm5.776 35.421c.059-.266.074-.458.044-.591l.207-.044c.251-.059.399.029.458.266l.044.192-.753.177zm4.047-33.9l-.414-.074c-.664.266-1.226.458-1.684.562l-.384.088c-.222.059-.399-.029-.487-.266l2.703-.62.886-.414.296.34c-.429.089-.739.222-.916.384zm2.083-.664l-.045-.192c.133-.03.31-.133.502-.325l1.921-.444.044.192c-1.019.252-1.832.503-2.422.769zm.295-3.885c-.133.029-.31.147-.532.325-.029-.133-.295-.133-.797-.015-.089-.369 1.329-.886 4.268-1.566l.414-.088.089.354-3.442.99zm5.17-5.584c-.207 2.349-1.034 3.678-2.496 4.018l-.045-.192-1.3.502-.576.133c-.295.074-.561.059-.797-.015l-.118-.517c-.045-.192 1.831-2.791 5.642-7.784l.443.074c.163.679-.088 1.935-.753 3.781zm9.143-7.828l-.177.014-.03-.369.768-.074.015.192c-.133.03-.325.104-.576.237zm-3.766 37.828c-.444-.207-.842-.295-1.182-.266l-.044-.561c-.015-.192.103-.325.354-.399.251-.029.399.148.428.532.636-.812.99-1.226 1.064-1.226l.399.163c-.148 1.122-.488 1.713-1.019 1.757zm40.384-42.245c-.192.015-.562-.576-1.138-1.772l-.029-.37c.369-.029.753.547 1.137 1.729l.03.413zm-.532-4.224l-.177.384-5.466-2.289c3.649.118 5.539.753 5.643 1.905zm-23.176 19.896l-.768.074-.03-.369.768-.059.03.354zm-.635-11.95l.207-.014.044.561c-.192.015-.428.281-.709.798l-.03-.37c.34-.428.503-.753.488-.975zm-1.61 3.841l.059.724-.207.014-.059-.723.207-.015zm-.872 1.374l.384-.03c-.044.62-.206.945-.487.975l-.207.015c.222-.414.325-.739.31-.96zm-.62 1.89l.177-.015.015.193-.34.59-.384.03-.015-.192c.399-.03.576-.236.547-.606zm-.62 1.714l-.133.945-.178.015-.073-.931.384-.029zm-6.308 17.917c-.251 1.241-.517 1.876-.797 1.905l-.015-.162c-.044-.62.221-1.211.812-1.743zm-1.167 2.496l.015.163c.03.266-.088.413-.354.428l-.015-.192c-.015-.192.103-.325.354-.399zm-.325 5.2l.591-.045.015.192c-.133.015-.34.089-.576.222l-.384.03c-.015-.207.103-.34.354-.399zm16.588-5.126c-3.249 1.61-5.184 2.703-5.79 3.265-3.545 1.24-5.303 2.008-5.273 2.319-3.146 1.255-5.214 2.156-6.189 2.732-.237.015-.576-.074-1.019-.28-.06-.636.236-1.153.856-1.537.562-.044 1.093.03 1.581.237.591-.296 1.61-.621 3.057-.99l-.029-.369-1.211.088c.147-.206 1.285-.738 3.397-1.595l.591-.044.015.162c-1.005.089-1.566.384-1.684.916.014.236.162.355.413.325.739-.487 1.093-.768 1.093-.857 1.418-.251 5.347-2.319 11.802-6.189l.03.37c.015.162-.532.635-1.64 1.447zm-9.896 3.25c.96-.089 1.772-.458 2.452-1.108.251-.03.399.089.413.325-.443.044-1.314.414-2.629 1.123l-.207.014-.029-.354zm15.982-12.275l-4.919 3.959c-3.678 2.407-5.672 3.619-5.982 3.648-5.849 3.22-9.483 4.889-10.916 5.008l-.207.014c.178-.664 2.792-5.997 7.844-16.012 2.201-.192 5.687-1.24 10.472-3.131l1.197-.103c2.408-.207 4.21.265 5.391 1.403l.059.724c-.901 2.54-1.875 4.032-2.939 4.49zm-9.66-5.436l.768-.074.015.192-.768.074-.015-.192zm11.181-1.905l.591-.044c.547.265.827.502.842.694l.015.162c-.517.045-1.004-.221-1.448-.812zm1.551-8.996c-.517.621-1.92 1.684-4.209 3.161-.768.074-3.604 1.167-8.508 3.294-.237-.088-.503-.118-.783-.103l-.03-.369c-.059-.709.251-1.596.931-2.674.384-2.038.812-3.176 1.255-3.442l4.121-9.217c-.044-.546.828-.989 2.6-1.329l.591-.045.044.562 3.279-.488c3.25-.28 4.949.37 5.082 1.965l.384-.03-.074-.886.384-.029c.945.517 1.447 1.137 1.507 1.875.044.532-.222 1.182-.783 1.935-.251.03-.399-.147-.429-.531l-.384.029-.118 1.108c-1.64 2.496-2.836 3.781-3.589 3.841-.665.901-1.079 1.358-1.271 1.373zm1.729 6.145l-.045-.561.384-.03.828.502c.014.237-.104.37-.355.399-.354-.221-.62-.325-.812-.31zm-68.76 35.879l-.384.089-.325.28c.059.237.207.325.458.266s.355-.207.295-.443l-.044-.192zm-1.462-2.91l.044.192c.251-.059.355-.207.295-.443l-.044-.192c-.236.059-.34.207-.296.443zm10.399-24.742l.443-.103-.089-.384-.443.103.089.384zm134.032 11.256c-4.49 1.004-5.051.827-5.997.901l.03.369.413-.029.222-.015-.059-.044.487-.192c4.446-.488 4.963-.31 4.919-.813l-.015-.177zm-24.18 3.205l.03.37h.059l-.03-.37h-.059zm-2.777-9.734l-.399-.133c-.325.872-.487 1.389-.472 1.536l.014.163c.311-.015.591-.547.857-1.566zm27.873 6.455l.03.369.65.119-.03-.37-.65-.118zm-30.561 3.737l-1.005-.118-.177.384.015.192 5.982-.502-.029-.369-4.786.413zm-2.718-13.102l-.015-.192-.207.015-.369.236.207.355c.281-.03.414-.163.384-.414zm36.115 6.647l.281-.029c.162-.015.236-.148.221-.384l-.162-.355c-1.019.089-1.492.133-2.319.591l-.015-.192-1.226.118c-.029-.369-.133-.561-.295-.546l-.635.059c-.739.059-1.094.029-1.463.31-.015-.133-.059-.192-.133-.192l-.709.059-.413.236c-.015-.133-.059-.192-.133-.192l-.251.222-.015-.192-.99-.074-.236.015.029.369.503.133.472-.03c.163.104.34.133.547.119l.413-.207.015.162c-2.319.576-2.304.473-3.899.739-.178-.118-.311-.177-.399-.163l-.03.03c-.177-.015-.28-.133-.295-.325l.827-.103c.059 0 .103.059.561.147.665-.325.695-.458 1.049-.487l-.029-.369c-2.275.443-1.359.147-4.21.398l-.133.015-.03-.369c3.663-.443 2.438-.192 3.693-.547.015.133.059.192.133.192.148-.147.31-.221.502-.251l.251-.015c1.285-.103 1.714.148 4.254-.561l.015.163.414-.207.384-.03c-.03-.369.532-.428.724-.443l-.03-.399c-4.461.901-5.628.65-6.869 1.005l-.014-.163c-1.167.207-1.212.118-1.507.133-.089.015-.221.089-.369.237-.015-.133-.059-.192-.148-.192-.044 0-.059.014-.074.014l-3.781.621c-.015-.104-.059-.163-.148-.148-1.964.414-1.433.487-4.062.724-.118.015-.281.074-.487.207-.015-.104-.074-.163-.207-.148l-1.61.133-1.078.266c-.015-.104-.074-.163-.207-.148-.606.162-1.138.266-1.566.295h-.03c-.265.03.133-.073-.073-.162l-.325.192c-.473.044-.222-.03-1.847-.015-2.851.355-2.54.399-2.851.414l-1.063-.074c.015.103-.044.177-.163.177-1.211-.162-1.831-.354-1.846-.576.163-1.152.443-1.743.842-1.772l.207-.015-.177.384.206-.015c.384-.207.562-.399.547-.576l-.03-.399-.384.03-.029-.37c-.03-.28.015-.531.118-.738l.871-1.403.03.369.414-.03-.03-.369-.236-.34c.31-.266.546-.413.738-.428l-.015-.192-.561.044-.044-.561c1.122-2.334 1.654-3.693 1.625-4.077l.398.163c.252-.015.37-.163.355-.429l-.384.03-.015-.163a1.41 1.41 0 0 1 .148-.782c.605-.636.886-1.271.827-1.935.118-.015.177.044.192.177.517-.296.916-1.079 1.211-2.378.916-1.655 2.216-4.963 3.915-9.912 3.249-8.744 3.116-9.675 3.574-11.743l-.384.029c.03.266-.029.517-.148.753-.265-.103-.472-.162-.62-.148l-.015-.162c-.059-.753.251-1.654.96-2.718l.178-.015.325 1.27.384-.029c-.015-.089.088-.591.295-1.522-.015-.192-.162-.31-.458-.325l-.369.236c-.03-.266-.015-.96.029-2.068l-.192.015c-.325-.325-.487-.591-.502-.812l-2.112.207c-.015-.148-.089-.369-.236-.65-.015-.192.458-.384 1.432-.576l.429.162.399-.236c.014.133.088.192.236.177l.399-.236c.015.133.088.192.236.177l.192-.015-.029-.428c-.296.03-1.079.03-2.319-.015l-.399.266-.015-.236-16.883 1.403c-.178.015-.872 0-2.098-.029.015.162-.133.251-.428.281l-.429-.192-1.447.369c-.34.029-.916.015-1.714-.074-.221.177-.487.281-.812.31a278.57 278.57 0 0 0 4.239-.266c-.221.177-.561.281-1.034.325-.325.03-.605-.015-.842-.148-.325.148-1.373.384-3.131.739l-.428-.163-6.913 1.064c-.266-.133-.576-.177-.931-.148-.369.029-.99.162-1.846.399l-3.339 1.389.252.414c.162-.015.398-.103.679-.266l1.182.103-.148 1.108c-1.093.488-1.728 1.211-1.905 2.127-1.64.724-2.452 1.24-2.452 1.551l.014.192.251-.015.444-.236.517.62.073.857c.03.266-2.732 6.071-8.257 17.415-4.785 10.93-7.297 16.913-7.533 17.991-1.639.458-2.585 1.122-2.865 2.009.029.28.517.472 1.462.546l.044.429-.428.709.074.856c.044.443 1.24.783 3.589 1.02-.015-.148.059-.237.222-.252.044.532-.104 1.566-.443 3.102l.251-.014c.975-1.33 1.432-2.246 1.388-2.748l.207-.015c.236-.014.487.251.783.828-.296.118-1.33 2.466-3.102 7.06l.251.414.251-.015c2.171-5.495 3.53-8.538 4.092-9.114l14.785-1.506.444-.266c.014.147.103.221.265.206l.458-.044.443-.266c.015.148.104.222.266.207l5.303-.458c1.403-.118 2.068-.546 2.009-1.27-.015-.192.812-.414 2.482-.65.162-.015.398.029.723.133-.014-.133.828-.266 2.511-.414.045-.886.325-1.359.828-1.403l-.045-.428c-.472.044-1.004.162-1.624.369-1.108-.059-1.817-.148-2.113-.251-.295.162-.517.251-.679.266l-3.693.118-.443.236c-.015-.133-.104-.192-.266-.177l-.207.015-.472.236c-.015-.133-.399-.236-1.167-.34l-.473.281-.916.074-.015-.236c4.757-.517 7.105-1.167 7.046-1.936.31-.029.473.119.502.429l1.389-.355-.044-.428-11.389.31c.015.148-.059.237-.222.251l-1.388-.118c-.354.03-.65.133-.886.31l-.517-.192c-1.433.118-2.497.296-3.206.517-.974-.074-2.053-.059-3.249.045l-2.556.221-1.181-.133c-.059-.753 1.403-4.461 4.416-11.108.872-2.245 1.669-3.648 2.437-4.18.163-.015.399.044.724.177l1.817-.62.931.148c1.565-.133 3.382-.576 5.465-1.344.517-.045.901-.015 1.182.103l1.388-.325 4.136-.354c1.758-.148 3.663-.532 5.731-1.167l-.044-.429c-.768.074-1.167-.059-1.197-.369-.044-.576-.605-.812-1.683-.724l-.045-.428 1.138-.325 2.983-.251-.044-.429c-.118.015-.724 0-1.846-.044l-.045-.458 1.152-.103c.311-.03.444-.177.414-.473-1.551.044-2.334-.029-2.349-.236-10.812.532-16.233.635-16.262.295-.163.015-.384.118-.68.296l-.281-.444c2.866-6.085 4.55-9.158 5.037-9.202.015.236-.103.621-.369 1.137l.015.193.458-.045c1.137-2.718 2.097-4.121 2.895-4.18 3.397-.295-.473-.517 6.795-1.654.295.133.502.192.65.177 2.85-.576 6.824-1.182 11.92-1.802l-.03-.428-2.718.251-.029-.428c.325-.029.591-.133.812-.31l.015.236c.148-.015.354-.118.62-.295.473-.044.828 0 1.079.133.945-.251 1.713-.399 2.274-.458l1.699-.163c.414-.266.606-.502.591-.724l-.015-.192c-.428.044-.916.015-1.492-.089-.015-.236.104-.399.384-.473l3.161-.295 1.448-.369c.015.163.088.222.207.222.147-.015.354-.118.62-.296.074.015.163.015.236.03-.192.399-.413.975-.635 1.728l-.413.029c-.03-.281-.104-.532-.237-.753l-.207.015c-3.84 10.694-5.553 15.672-9.098 23.884-.65 2.098-1.197 3.265-1.67 3.516.015.236.163.354.414.325.089 1.034-.148 2.053-.724 3.057-1.639 4.727-2.732 7.312-3.294 7.785l.37 2.23c.014.237-.104.369-.355.399l-.384.03c-.059-.621-.281-.916-.679-.872l-.207.015c-.502.783-.887 1.684-1.138 2.733l.384-.03c.517-.34.754-.739.709-1.196l.768-.074.444.162c-.355.561-.517 1.005-.488 1.344l.207.355-.502 1.181.015.193c.443-.045.93.103 1.447.413.355-.029.739-.192 1.167-.473.443-.044 2.097-.059 4.948-.059l1.433-.487c1.743-.015 2.024.029 3.53-.103l.621-.06.325-.221.015.192c1.58-.133 1.683-.03 2.924.118l.015.192-.872.074.03.369c.266-.029.502-.103.694-.266.222-.014.355.104.37.37-.355.029-.754.118-1.197.265l-.384-.132c-.606.162-.473.206-.886.236l-.606-.118c.015.103-.044.177-.148.177.015.236.148.354.37.34l.62-.059 3.235-.281 1.226-.266c.015.103.059.163.162.148l.591-.222 1.108-.088c.857-.074.842-.133 2.703-.429-.015-.118.03-.162.118-.177l.015.162c3.028-.517 3.22-.546 3.708-.709l.044.089c.753-.177.325-.133.532-.281.015.133.059.192.133.192l.531-.044-.029-.399-1.078-.014-.015-.03c-.044.015-.074.015-.118.03h-.148v.029c-.724.148-.739.044-1.211.089l-2.703.147-.015-.192 1.507-.206.546-.045.31-.221.015.192c2.127-.177 2.88.354 12.718-1.743.532-.045.487-.488.827-1.403-.177.014-.354-.03-.517-.119-.812.311-1.241.163-2.806.414-.133.015-.237-.103-.281-.34l-.015-.162 1.507.044c.28-.03.827-.074 1.639-.532 0 .133-.295.207-.118.192zm-72.732 1.167l-.695.059c-.029-.28.34-1.344 1.108-3.161l.458-.044c.015.428-.266 1.477-.871 3.146zm.842-3.368l-.015-.192c-.015-.236.133-.398.458-.472l.014.192c.015.28-.133.443-.457.472zm9.231 7.135l.015.192-1.152.103-.015-.192 1.152-.103zm-1.388-.118c.015.236-.34.502-1.108.768l-1.418-.104-.458.045-.044-.429 3.028-.28zm9.335-42.969l-.694.059-.015-.236c-.015-.236.118-.399.414-.473l.251-.015.473.192c.014.281-.119.443-.429.473zm10.562-2.068l.221-.015.03.428-.636.059c-.014-.236.104-.399.385-.473zm-2.659.931l-1.049-.118-.015-.192c1.374-.118 1.832-.266 2.674-.502.015.163.162.222.428.192l.03.428-.414.044c-.325.029-.606-.015-.842-.148-.251.162-.517.266-.812.295zm1.314 3.826l-.014-.192 1.698-.162.015.192-1.699.163zm1.817-1.477l-.015-.236.828-.074.014.236-.827.074zm.192-2.895l-.221.015.192-.458 1.89-.177.015.236c-.487.044-1.122.177-1.876.384zm.96 4.077l-.029-.428.827-.074c.281-.03.428.103.443.399l-1.241.103zm5.008-6.824l-1.064.295-.192.015c-.502.044-1.152.03-1.92-.044 1.374-.089 2.688-.192 3.176-.266zm-1.138 4.727l.015.192-1.462.133-.015-.192 1.462-.133zm2.393 1.137c-.014-.177-.295-.295-.871-.355l-1.463.414-1.122.044c-.251-.177-.384-.295-.399-.384l1.3.074 2.925-.473 1.491.059.015.236c-.738.074-1.359.207-1.876.384zm15.052-3.885c.177.015.295.015.34.015.517-.502 1.093-.901 1.757-1.182-.531 2.334-1.358 4.062-2.496 5.185l-.827-.502c.694-1.758 1.108-2.925 1.226-3.516zm-2.541 4.358l.207-.015c-.28.532-.532.812-.738.827l-.045-.561c.133 0 .325-.089.576-.251zm-1.639 3.914c.399-1.595.783-2.496 1.137-2.732l.015.192c-.207 1.477-.532 2.26-.96 2.319l.074.93c-.355.503-.517.887-.503 1.182l-.206.015-.119-1.285c.237-.03.429-.236.562-.621zm-.635 2.128c.014.221-.133.738-.429 1.536l-.207.014-.044-.561c.281-.65.517-.975.68-.989zm-11.921 34.593l-.014-.162.384-.03.044.562c-.207.014-.355-.104-.414-.37zm17.031.443c-.014-.133-.073-.192-.206-.177l-.961.089-.014-.192h.088l2.275-.192.015.192c-.665.029-1.064.133-1.197.28zm-1.137-.472c.089.044.044.088 0 .118-.044-.015-.103-.059 0-.118zm.118-2.659l-1.27.103-.015-.192 1.152-.103 1.005-.251c.014.118.074.162.206.148 1.197-.207 1.079-.266 1.655-.311.192-.014.31.104.325.34l-3.058.266zm4.446-.384c-.709-.074-.753-.133-1.255-.089l-.015-.162 1.137-.104.015.163c-.118.015.31.044.118.192zm.089-.207l-.015-.162.621-.059.014.162-.62.059zm1.374-.118l-.015-.163c.103-.014.251-.088.443-.236.31-.029.473.177.502.414l-.93-.015zm1.757-.222l-.014-.192.753-.059.015.192-.754.059zm1.049-.088c-.015-.222.074-.355.266-.384l.251.325c-.015-.104.03-.163.118-.178l.192.355-.827-.118zm-11.152 4.815l-.03-.369-.118.015.03.369.118-.015zm25.953-6.721c.118-.074.177-.147-.104-.192-.133.148.148.192-.147.207l.014.133c.03-.03.104-.074.163-.118l-.163.133v.015l-.31.398.621-.221h.073l-.029-.369-.118.014zm1.078.842l-.118.015.029.369.872-.074c-.015-.236-.591-.31-.783-.31zm-1.344-.65l.015-.014v-.015s-.015.015-.015.029z" fill="#000"/><path d="M169.167 105.957l.015.236.487-.044c-.015-.148.044-.384.148-.679l-.044-.429c-.207.015-.414.325-.606.916zm-4.668-11.226l-.044-.428-.694.059.044.428.694-.059zm-13.545 25.362c-.029-.399-1.27-1.95-3.722-4.682-.044-.503.798-1.256 2.526-2.246l4.933-4.298c1.108-1.403 1.758-3.678 1.95-6.839l-.059-.724c-.192-2.186-1.773-3.944-4.771-5.288-1.773-1.196-4.963-1.861-9.572-1.979-3.811.325-8.788 1.684-14.918 4.092-1.684 1.211-3.605 2.422-5.761 3.633l.029.369c.133-.014.34-.088.576-.251.252-.029.399.089.414.325l.369-.192.178-.014.014.162c.015.192-1.314 1.241-4.003 3.117l.207.384-.177.015-.443-.163c.015.133-.177.222-.547.251l.015.163.428.531c-.133.015-.339-.044-.62-.147-.62.059-1.226.384-1.832 1.004l.251-1.093c.902-3.885 1.522-7.326 1.847-10.31l-.044-.192c-.621-.399-1.226-.96-1.788-1.669.015-.458.015-.724 0-.783l-.044-.162-.177.044c-1.95 2.925-5.702 7.917-11.271 14.978-4.239 5.022-6.425 7.813-6.558 8.375-1.728 1.787-2.555 2.865-2.467 3.235-.458.295-.65.59-.576.915-.133.03-.222-.014-.251-.147-.739 1.196-1.832 1.964-3.294 2.304l-1.536.354c-.207.045-.31.192-.296.444l.044.192.576-.133.044.162-1.3.502-2.304.532-1.211.074c-.177.177.96-.015.517.089l-1.507.354c-.916.207-1.418.133-1.507-.236l-.177.044c.03.163.044.281.015.384l-.089-.369-1.211.28c-.089-.561-1.728-2.599-4.904-6.115-.059-.679 1.063-1.669 3.353-2.954l6.47-5.687c1.448-1.861 2.304-4.845 2.585-8.951l-.089-.96c-.251-2.895-2.349-5.229-6.293-7.031-2.334-1.581-6.529-2.422-12.585-2.555-5.022.428-11.58 2.216-19.645 5.332-2.216 1.61-4.742 3.205-7.578 4.786l.044.502c.192-.015.443-.118.753-.296.325-.029.502.119.532.414l.502-.281.251-.014.015.236c.015.236-1.743 1.61-5.303 4.121l.281.443-.251.015-.547-.192c.015.148-.236.251-.753.295l.03.266.591.65c-.192.015-.458-.044-.798-.162-1.152.103-2.275.93-3.383 2.496l.281.443c.96-.886 1.521-1.329 1.684-1.344l.059.724c-.162.014-.414.118-.753.295l.606.916a20 20 0 0 1 3.855-3.235c.694.177 1.063.399 1.078.635l.532-.044c3.811-2.821 7.578-4.86 11.315-6.115l.044.502c-.694 1.034-1.167 1.566-1.418 1.595.03.355.148.665.369.931.059.635-1.64 4.919-5.081 12.836-7.814 18.405-14.372 32.023-19.705 40.827.015.177.118.414.31.709 1.315-.31 2.142-.635 2.496-.945l.281-.03.044.502.487-.044.502-.281c.015.148.177.222.517.192l.044.503c.044.487-.236 1.226-.827 2.245-.532.605-1.108 1.876-1.713 3.811l.015.236.487-.044c2.127-2.378 3.737-4.712 4.845-6.987 6.204-1.817 10.931-3.604 14.21-5.362 3.294-.281 5.805-1.152 7.518-2.585l-.029-.266-1.241.37-.281.029-.03-.266c2.422-.369 4.092-.901 5.022-1.639 4.712-3.634 8.272-6.204 10.68-7.726 4.948-3.633 8.168-7.178 9.631-10.62l.827-.192c.694-.03 1.078-.044 1.182-.074-.029-.133.03-.207.162-.236 1.108-.118.576.074 1.285-.089l1.861-.428.31-.074-.148.089c.207.029.428.014.68-.045l.133.547-8.464 13.456-1.876 2.349-.916 3.072.177-.044.916-.384-.296 1.196.089.355.251.31c-.118.03-.162.103-.133.236l.044.192.384-.088c.561-.488.798-.931.709-1.33.606.104 1.004.148 1.211.089l.044.192c-.369.089-.561.384-.591.886l.044.192.207-.044c3.072-3.353 10.606-14.83 16.647-22.614-.192-.842 2.954-2.009 9.454-3.516l.207-.044c.236 1.019-.266 3.486-1.507 7.4-.798 2.363-1.182 3.663-1.122 3.87-1.034 3.146-1.522 4.845-1.463 5.111l-2.304 7.548c-1.492 3.87-2.629 7.932-3.427 12.215.133-.029.34-.014.635.06l.325-.281c.03.133.118.177.251.148l-.133-.547 1.004-.029c.295-.074.547-.444.753-1.123-.044-1.019.162-1.566.62-1.684.62-2.422 1.005-3.634 1.138-3.678.576-2.408 1.004-3.781 1.285-4.121.871-3.132 1.507-4.742 1.92-4.845l.089.384-.635 1.64c-1.108 4.918-2.231 8.803-3.368 11.654l.325 1.418.207-.044c2.747-5.909 6.706-17.607 11.861-35.096.147-1.537.886-2.733 2.201-3.575l-.296-.31-.044-.163c.591-.133 1.004-.369 1.241-.694-.03-.133-.547-.325-1.551-.591l2.57-11.019c.561-.502.886-.768.989-.768l.045.561c-.133.015-.34.089-.576.251l.487.695c.886-.96 1.847-1.788 2.895-2.482.532.148.798.325.827.502l.385-.029c2.924-2.142 5.79-3.678 8.611-4.609l.03.37c-.517.782-.872 1.181-1.064 1.196a1.62 1.62 0 0 0 .236.709c.045.487-1.226 3.737-3.825 9.764-5.938 13.958-10.916 24.283-14.963 30.989.014.133.103.311.266.547.989-.236 1.624-.488 1.875-.724l.178-.015.029.37.414-.03.369-.192c.015.103.148.148.399.133l.029.399c.03.354-.177.916-.635 1.684-.428.458-.871 1.418-1.344 2.88l.015.192.384-.029c1.61-1.803 2.836-3.575 3.678-5.318 4.712-1.389 8.301-2.733 10.783-4.062 2.526-.222 4.431-.872 5.731-1.965l-.015-.192-.96.281-.207.015-.014-.192c1.831-.266 3.116-.68 3.81-1.226 3.575-2.748 6.278-4.712 8.11-5.864 5.701-4.151 8.36-8.139 8.035-11.965zm-.975.251l.133 1.492c-.177.369-.369.561-.546.576l-.222-2.541c.414.148.621.296.635.473zM38.133 108.321l-.251.014-.044-.458 1.019-.088.015.236c-.162.015-.414.104-.739.296zm-4.978 49.793c-.591-.266-1.123-.37-1.58-.325l-.059-.724c-.029-.281.133-.473.488-.547.325-.029.517.207.547.68.857-1.049 1.329-1.581 1.418-1.595l.547.221c-.177 1.477-.635 2.231-1.359 2.29zm53.191-55.643c-.251.03-.753-.753-1.477-2.304l-.044-.458c.473-.044.96.724 1.477 2.304l.044.458zm-.709-5.509l-.207.487-7.223-3.013c4.815.163 7.297 1.005 7.43 2.526zm-30.502 26.189l-1.019.088-.044-.458 1.019-.088.044.458zm-.827-15.732l.251-.014.059.724c-.236.014-.547.369-.931 1.048l-.044-.502c.458-.546.694-.96.665-1.256zm-2.142 5.052l.089.96-.251.015-.089-.96.251-.015zm-1.123 1.802l.487-.044c-.044.798-.266 1.226-.665 1.255l-.251.015c.31-.531.458-.945.428-1.226zm-.842 2.511l.281-.029.015.236-.458.768-.487.045-.015-.237c.487-.044.709-.295.665-.783zm-.827 2.26l-.148 1.212-.251.014-.103-1.196.502-.03zm-8.286 23.56c-.325 1.654-.68 2.496-1.049 2.526l-.015-.236c-.089-.813.266-1.581 1.064-2.29zm-1.522 3.294l.015.236c.029.325-.118.517-.443.532l-.015-.236c-.029-.281.118-.458.443-.532zm-.443 6.839l.768-.074.029.266c-.192.015-.443.118-.753.296l-.487.044c-.03-.251.133-.443.443-.532zm21.861-6.75c-4.313 2.127-6.854 3.574-7.607 4.328-4.668 1.624-6.987 2.629-6.942 3.028-4.151 1.639-6.883 2.851-8.198 3.604-.31.029-.753-.089-1.344-.355-.074-.842.31-1.521 1.123-2.068a4.37 4.37 0 0 1 2.083.325c.768-.398 2.112-.842 4.018-1.314l-.044-.503-1.536.133c.192-.265 1.669-.96 4.446-2.082l.768-.074.015.236c-1.315.118-2.038.502-2.201 1.197.029.31.207.443.532.413.99-.62 1.477-.989 1.462-1.093 1.876-.354 7.061-3.072 15.554-8.139l.044.458c.015.222-.709.842-2.171 1.906zm-13.028 4.283c1.241-.103 2.304-.605 3.191-1.477.355-.029.547.104.561.414-.606.059-1.773.561-3.471 1.536l-.251.015-.029-.488zm21.019-16.144l-6.514 5.169c-4.845 3.176-7.445 4.771-7.829 4.801-7.71 4.239-12.511 6.44-14.372 6.603l-.281.029c.236-.871 3.663-7.888 10.31-21.093 2.925-.251 7.533-1.61 13.811-4.091l1.536-.133c3.176-.281 5.554.339 7.12 1.816l.089.961c-1.167 3.382-2.467 5.361-3.87 5.938zm-12.733-7.164l1.049-.089.015.236-1.049.089-.015-.236zm14.727-2.497l.768-.074c.709.34 1.078.636 1.108.901l.015.237c-.68.059-1.315-.296-1.891-1.064zm2.083-11.861c-.679.813-2.541 2.201-5.584 4.151-1.004.088-4.741 1.536-11.211 4.372a2.04 2.04 0 0 0-1.034-.177l-.044-.458c-.074-.931.34-2.098 1.256-3.516.502-2.658 1.049-4.18 1.654-4.549L63.48 100.3c-.059-.754 1.093-1.329 3.456-1.728l.768-.074.059.694 4.328-.606c4.284-.369 6.514.502 6.691 2.585l.487-.044-.103-1.226.532-.044c1.255.694 1.935 1.536 2.024 2.526.059.679-.31 1.521-1.093 2.525-.325.03-.517-.206-.546-.679l-.532.044-.118 1.477c-2.171 3.25-3.752 4.919-4.727 5.008-.886 1.226-1.433 1.831-1.654 1.846zm3.309 8.493c-.443-.295-.798-.428-1.064-.413l-.059-.724.488-.044 1.078.635c.044.34-.103.517-.443.546zm3.427 4.063c.473.192.753.398.812.59l-.236.059.015.015c-.044 0-.103.015-.148.03l-.355.28-.089-.974zm.325 2.038l-.044-.192.62-.148.044.192-.62.148zm1.492 1.669c.635-.103.945-.148 2.127-.414l.044.192-2.245.517c.029-.103.059-.206.074-.295zm2.186.931c-.945.088-.739-.03-2.245.31l-.044-.192 1.891-.606.901-.207.089.355c-.414.089-.118.089-.591.34zm1.994-.473c-.222.059-.399-.044-.502-.295l.576-.133c.251-.059.414.044.473.295l-.547.133zm5.406-5.82l-.044-.192.931-.221.089.354-.975.059zm5.775 35.421c.059-.266.074-.458.044-.591l.207-.044c.251-.059.399.03.458.266l.044.192-.753.177zm4.047-33.899l-.413-.074c-.665.266-1.226.458-1.684.561l-.384.089c-.222.059-.399-.03-.487-.266l2.703-.621.887-.413.295.34c-.428.088-.738.221-.916.384zm2.083-.665l-.044-.192c.133-.03.31-.133.502-.325l1.92-.443.044.192c-1.019.251-1.831.502-2.422.768zm.295-3.885c-.133.03-.31.148-.531.325-.03-.133-.296-.133-.798-.015-.089-.369 1.329-.886 4.269-1.565l.413-.089.089.354-3.442.99zm5.17-5.583c-.207 2.348-1.034 3.678-2.496 4.017l-.044-.192-1.3.503-.576.133c-.296.073-.562.059-.798-.015l-.118-.517c-.044-.192 1.832-2.792 5.642-7.785l.444.074c.162.68-.089 1.935-.754 3.782zm9.144-7.829l-.178.015-.029-.37.768-.073.015.192c-.133.029-.325.103-.576.236zm-3.767 37.829c-.443-.207-.842-.296-1.182-.266l-.044-.562c-.015-.192.103-.324.354-.398.252-.03.399.147.429.531.635-.812.989-1.226 1.063-1.226l.399.163c-.148 1.122-.487 1.713-1.019 1.758zm40.384-42.246c-.192.015-.561-.576-1.137-1.772l-.03-.369c.369-.03.753.546 1.137 1.728l.03.413zm-.532-4.224l-.177.384-5.465-2.29c3.648.118 5.539.753 5.642 1.905zm-23.176 19.897l-.768.073-.029-.369.768-.074.029.37zm-.635-11.95l.207-.015.044.561c-.192.015-.428.281-.709.798l-.029-.369c.34-.429.502-.754.487-.975zm-1.61 3.84l.059.724-.206.015-.06-.724.207-.015zm-.871 1.374l.384-.03c-.044.621-.207.946-.488.975l-.206.015c.221-.414.325-.739.31-.96zm-.621 1.891l.178-.015.014.192-.339.591-.384.029-.015-.192c.399-.029.576-.236.546-.605zm-.62 1.713l-.133.945-.177.015-.074-.93.384-.03zm-6.307 17.917c-.251 1.241-.517 1.876-.798 1.906l-.015-.163c-.044-.62.222-1.211.813-1.743zm-1.167 2.497l.015.162c.029.266-.089.414-.355.429l-.015-.193c-.014-.192.104-.324.355-.398zm-.325 5.199l.591-.044.015.192c-.133.015-.34.088-.577.221l-.384.03c-.014-.207.104-.34.355-.399zm16.588-5.125c-3.25 1.61-5.185 2.703-5.79 3.264-3.546 1.241-5.303 2.009-5.274 2.319-3.146 1.256-5.214 2.157-6.189 2.733-.236.014-.576-.074-1.019-.281-.059-.635.236-1.152.857-1.536.561-.045 1.093.029 1.58.236.591-.295 1.61-.62 3.058-.99l-.03-.369-1.196.104c.148-.207 1.285-.739 3.397-1.596l.591-.044.015.162c-1.005.089-1.566.385-1.684.916.015.237.162.355.413.325.739-.487 1.094-.768 1.094-.856 1.418-.252 5.347-2.32 11.802-6.19l.029.37c0 .147-.546.62-1.654 1.433zm-9.897 3.249a3.96 3.96 0 0 0 2.452-1.108c.251-.014.399.089.414.325-.443.045-1.315.414-2.629 1.123l-.207.015-.03-.355zm15.982-12.275l-4.918 3.959c-3.678 2.408-5.672 3.619-5.983 3.648-5.849 3.221-9.483 4.89-10.915 5.008l-.207.015c.177-.665 2.792-5.997 7.843-16.012 2.201-.192 5.687-1.241 10.473-3.132l1.196-.103c2.408-.207 4.21.266 5.392 1.403l.059.724c-.901 2.541-1.876 4.032-2.94 4.49zm-9.66-5.435l.768-.074.015.192-.768.074-.015-.192zm11.182-1.906l.591-.044c.546.266.827.502.842.694l.014.163c-.517.044-1.004-.222-1.447-.813zm1.551-8.995c-.517.62-1.92 1.684-4.21 3.161-.768.073-3.604 1.167-8.508 3.294-.236-.089-.502-.119-.783-.104l-.029-.369c-.06-.709.251-1.595.93-2.674.384-2.038.813-3.175 1.256-3.441l4.121-9.217c-.045-.547.827-.99 2.599-1.33l.591-.044.045.561 3.279-.487c3.249-.281 4.948.369 5.081 1.964l.384-.029-.074-.887.384-.029c.946.517 1.448 1.137 1.507 1.876.044.532-.222 1.182-.783 1.935-.251.029-.399-.148-.428-.532l-.384.03-.118 1.107c-1.64 2.497-2.837 3.782-3.59 3.841-.665.901-1.078 1.359-1.27 1.374zm1.728 6.144l-.044-.561.384-.029.827.502c.015.236-.103.369-.355.399-.354-.222-.62-.325-.812-.311zm-68.759 35.879l-.384.089-.325.281c.059.236.207.324.458.265s.355-.206.295-.443l-.044-.192zm-1.462-2.91l.044.192c.251-.059.355-.206.295-.443l-.044-.192c-.236.059-.34.207-.295.443zm10.458-19.645l.281-.177a.43.43 0 0 1-.148-.03.17.17 0 0 0-.133.207zm-.059-5.096l.443-.104-.089-.384-.443.104.089.384zm104.387 14.919l-1.004-.119-.177.384.014.193 5.983-.503-.03-.369-4.786.414zm5.466-.458l.029.369h.059l-.029-.369h-.059zm25.096-3.279l.029.369.65.118-.029-.369-.65-.118zm-.916.073c-4.491 1.005-5.052.828-5.997.901l.029.37.414-.03.221-.015-.059-.044.488-.192c4.446-.487 4.963-.31 4.919-.812l-.015-.178zm-26.957-6.528l-.399-.133c-.325.871-.488 1.388-.473 1.536l.015.162c.31-.014.591-.546.857-1.565zm-5.407-2.91l-.014-.192-.207.014-.369.237.206.354c.281-.029.414-.162.384-.413zm11.743 12.141l-.029-.369-.118.015.029.369.118-.015zm24.373-5.494l.28-.03c.163-.015.237-.148.222-.384l-.163-.354c-1.019.088-1.491.133-2.319.59l-.014-.192-1.226.119c-.03-.37-.133-.562-.296-.547l-.635.059c-.739.059-1.093.03-1.462.31-.015-.133-.059-.192-.133-.192l-.709.059-.414.237c-.015-.133-.059-.192-.133-.192l-.251.221-.015-.192-.989-.074-.237.015.03.369.502.133.473-.029c.162.103.339.133.546.118l.414-.207.015.163c-2.319.576-2.305.472-3.9.738-.177-.118-.31-.177-.399-.162l-.029.029c-.178-.014-.281-.133-.296-.325l.827-.103c.06 0 .104.059.562.148.664-.325.694-.458 1.049-.488l-.03-.369c-2.275.443-1.359.148-4.21.399l-.133.014-.029-.369c3.663-.443 2.437-.192 3.692-.546.015.133.06.192.133.192a.86.86 0 0 1 .503-.251l.251-.015c1.285-.104 1.713.148 4.254-.561l.015.162.413-.207.384-.029c-.029-.37.532-.429.724-.443l-.03-.399c-4.46.901-5.627.65-6.868 1.004l-.015-.162c-1.167.206-1.211.118-1.506.133-.089.014-.222.088-.37.236-.015-.133-.059-.192-.147-.192-.045 0-.06.015-.074.015l-3.782.62c-.014-.103-.059-.162-.147-.148-1.965.414-1.433.488-4.062.724-.119.015-.281.074-.488.207-.015-.103-.074-.163-.207-.148l-1.61.133-1.078.266c-.015-.103-.074-.162-.207-.148-.605.163-1.137.266-1.566.296h-.029c-.266.029.133-.074-.074-.163l-.325.192c-.473.045-.221-.029-1.846-.014-2.851.354-2.541.398-2.851.413l-1.064-.074c.015.104-.044.178-.162.178-1.211-.163-1.832-.355-1.846-.577.162-1.152.443-1.743.841-1.772l.207-.015-.177.384.207-.015c.384-.206.561-.398.546-.576l-.029-.398-.384.029-.03-.369c-.029-.281.015-.532.118-.739l.872-1.403.029.369.414-.029-.03-.37-.236-.339c.31-.266.547-.414.739-.429l-.015-.192-.561.045-.045-.562c1.123-2.333 1.655-3.692 1.625-4.076l.399.162c.251-.015.369-.162.354-.428l-.384.029-.014-.162c-.03-.281.029-.547.147-.783.606-.635.887-1.27.827-1.935.119-.015.178.044.193.177.516-.295.915-1.078 1.211-2.378.916-1.654 2.215-4.963 3.914-9.911 3.25-8.745 3.117-9.675 3.575-11.743l-.384.03c.029.266-.03.517-.148.753-.266-.103-.473-.162-.62-.148l-.015-.162c-.059-.753.251-1.654.96-2.718l.177-.015.325 1.27.384-.03c-.015-.089.089-.591.296-1.521-.015-.192-.163-.31-.458-.325l-.37.236c-.029-.266-.014-.96.03-2.068l-.192.015c-.325-.325-.488-.591-.502-.812l-2.113.207c-.014-.148-.088-.369-.236-.65-.015-.192.458-.384 1.433-.576l.428.162.399-.236c.015.133.089.192.236.177l.399-.236c.015.133.089.192.237.177l.192-.015-.03-.428c-.295.03-1.078.03-2.319-.015l-.399.266-.015-.236-16.883 1.403c-.177.015-.871 0-2.097-.03.014.163-.133.251-.429.281l-.428-.192-1.448.369c-.339.029-.916.015-1.713-.074-.222.177-.488.281-.813.31-.177.015 2.113-.118 4.24-.266-.222.177-.562.281-1.034.325-.325.029-.606-.015-.842-.148-.325.148-1.374.384-3.132.739l-.428-.162-6.913 1.063c-.266-.133-.576-.177-.93-.148-.37.03-.99.163-1.847.399l-3.338 1.388.251.414c.163-.015.399-.103.679-.266l1.182.103-.148 1.108c-1.093.487-1.728 1.211-1.905 2.127-1.64.724-2.452 1.241-2.452 1.551l.015.192.251-.015.443-.236.517.62.074.857c.029.266-2.733 6.071-8.257 17.415-4.786 10.931-7.297 16.913-7.533 17.991-1.64.458-2.585 1.123-2.866 2.009.03.281.517.473 1.462.547l.045.428-.429.709.074.857c.044.443 1.241.783 3.59 1.019-.015-.148.059-.236.221-.251.044.532-.103 1.565-.443 3.102l.251-.015c.975-1.329 1.433-2.245 1.389-2.748l.206-.014c.237-.015.488.251.783.827-.295.118-1.329 2.467-3.102 7.06l.251.414.251-.015c2.172-5.495 3.531-8.537 4.092-9.113l14.786-1.507.443-.266c.015.148.103.222.266.207l.458-.044.443-.266c.015.147.103.221.266.206l5.303-.457c1.403-.119 2.068-.547 2.009-1.271-.015-.192.812-.413 2.481-.65.163-.014.399.03.724.133-.015-.133.827-.266 2.511-.413.044-.887.325-1.359.827-1.404l-.044-.428c-.473.044-1.005.163-1.625.369-1.108-.059-1.817-.147-2.112-.251-.296.163-.517.251-.68.266l-3.693.118-.443.237c-.014-.133-.103-.192-.266-.178l-.206.015-.473.236c-.015-.133-.399-.236-1.167-.339l-.473.28-.915.074-.015-.236c4.756-.517 7.105-1.167 7.046-1.935.31-.03.472.118.502.428l1.388-.354-.044-.429-11.389.311c.015.147-.059.236-.221.251l-1.389-.119c-.354.03-.649.133-.886.311l-.517-.192c-1.433.118-2.496.295-3.205.517-.975-.074-2.053-.059-3.25.044l-2.555.222-1.182-.133c-.059-.754 1.403-4.461 4.417-11.108.871-2.245 1.669-3.649 2.437-4.18.162-.015.399.044.724.177l1.817-.621.93.148c1.566-.133 3.383-.576 5.465-1.344.517-.044.901-.015 1.182.103l1.389-.325 4.135-.354c1.758-.148 3.664-.532 5.732-1.167l-.045-.428c-.768.073-1.167-.059-1.196-.37-.044-.576-.606-.812-1.684-.723l-.044-.429 1.137-.325 2.984-.251-.045-.428c-.118.015-.723 0-1.846-.045l-.044-.457 1.152-.104c.31-.029.443-.177.414-.473-1.551.045-2.334-.029-2.349-.236-10.812.532-16.233.635-16.263.296-.162.014-.384.118-.679.295l-.281-.443c2.865-6.086 4.549-9.158 5.037-9.203.015.237-.104.621-.355 1.138l.015.192.458-.044c1.137-2.718 2.097-4.122 2.895-4.181 3.397-.295-.473-.517 6.795-1.654.295.133.502.192.65.177 2.851-.576 6.824-1.182 11.92-1.802l-.03-.428-2.717.251-.03-.428a1.47 1.47 0 0 0 .812-.31l.015.236c.148-.015.355-.118.621-.295.472-.044.827 0 1.078.133.945-.251 1.713-.399 2.275-.458l1.698-.162c.414-.266.606-.502.591-.724l-.015-.192c-.428.044-.915.015-1.492-.089-.014-.236.104-.399.385-.473l3.161-.295 1.447-.369c.015.162.089.221.207.221.148-.015.354-.118.62-.295.074.015.163.015.237.029-.192.399-.414.975-.636 1.728l-.413.029c-.03-.281-.104-.532-.236-.753l-.207.015c-3.841 10.694-5.554 15.672-9.099 23.885-.65 2.097-1.197 3.264-1.669 3.515.014.237.162.355.413.325.089 1.034-.148 2.053-.724 3.058-1.639 4.727-2.732 7.311-3.294 7.784l.37 2.231c.015.236-.104.369-.355.398l-.384.03c-.059-.62-.28-.916-.679-.872l-.207.015c-.502.783-.886 1.684-1.137 2.733l.384-.03c.517-.339.753-.738.709-1.196l.768-.074.443.162c-.355.562-.517 1.005-.488 1.345l.207.354-.502 1.182.015.192c.443-.044.93.103 1.447.413.355-.029.739-.192 1.167-.472.443-.045 2.098-.059 4.949-.059l1.432-.488c1.743-.015 2.024.03 3.531-.103l.62-.059.325-.222.015.192c1.58-.133 1.684-.029 2.924.118l.015.192-.871.074.029.37c.266-.03.502-.104.694-.266.222-.015.355.103.37.369-.355.029-.754.118-1.197.266l-.384-.133c-.605.162-.472.207-.886.236l-.606-.118c.015.103-.044.177-.147.177.014.237.147.355.369.34l.62-.059 3.235-.281 1.226-.266c.015.104.059.163.163.148l.59-.221 1.108-.089c.857-.074.842-.133 2.703-.428-.014-.119.03-.163.119-.178l.014.163c3.028-.517 3.22-.547 3.708-.709l.044.088c.754-.177.325-.133.532-.28.015.133.059.192.133.192l.532-.045-.03-.398-1.078-.015-.015-.03c-.044.015-.074.015-.118.03h-.148v.029c-.724.148-.738.045-1.211.089l-2.703.148-.015-.192 1.507-.207.546-.044.31-.222.015.192c2.127-.177 2.881.355 12.718-1.743.532-.044.488-.487.827-1.403-.177.015-.354-.03-.517-.118-.812.31-1.24.162-2.806.413-.133.015-.237-.103-.281-.339l-.015-.163 1.507.044c.281-.029.827-.073 1.64-.531 0 .133-.311.206-.133.192zm-72.733 1.167l-.694.059c-.03-.281.339-1.345 1.108-3.161l.457-.045c.015.429-.265 1.477-.871 3.147zm.842-3.368l-.015-.192c-.015-.237.133-.399.458-.473l.015.192c.015.281-.133.443-.458.473zm9.232 7.134l.015.192-1.153.104-.014-.192 1.152-.104zm-1.389-.118c.015.236-.339.502-1.107.768l-1.418-.103-.458.044-.045-.428 3.028-.281zm9.336-42.969l-.695.059-.014-.236c-.015-.236.118-.399.413-.473l.251-.015.473.192c.015.281-.118.443-.428.473zm10.561-2.068l.222-.015.029.428-.635.059c-.015-.236.103-.399.384-.473zm-2.659.931l-1.049-.118-.014-.192c1.373-.118 1.831-.266 2.673-.502.015.162.163.221.429.192l.029.428-.413.044c-.325.029-.606-.015-.842-.148a1.81 1.81 0 0 1-.813.295zm1.315 3.826l-.015-.192 1.699-.162.014.192-1.698.162zm1.817-1.477l-.015-.236.827-.074.015.236-.827.074zm.192-2.895l-.222.015.192-.458 1.891-.177.015.236c-.488.044-1.123.177-1.876.384zm.96 4.077l-.03-.428.827-.074c.281-.029.429.103.444.399l-1.241.103zm5.007-6.824l-1.063.295-.192.015c-.503.044-1.152.03-1.921-.044 1.374-.089 2.689-.192 3.176-.266zm-1.137 4.727l.015.192-1.463.133-.015-.192 1.463-.133zm2.393 1.137c-.015-.177-.296-.295-.872-.355l-1.462.414-1.123.044c-.251-.177-.384-.295-.399-.384l1.3.074L188 95.75l1.492.059.015.236a8.36 8.36 0 0 0-1.876.384zm15.051-3.885a3.96 3.96 0 0 0 .34.015c.517-.502 1.093-.901 1.758-1.182-.532 2.334-1.359 4.062-2.496 5.185l-.828-.502c.695-1.758 1.108-2.925 1.226-3.515zm-2.54 4.357l.207-.015c-.281.532-.532.812-.739.827l-.044-.561c.133 0 .325-.089.576-.251zm-1.64 3.914c.399-1.595.783-2.496 1.138-2.733l.014.192c-.206 1.477-.531 2.26-.96 2.319l.074.931c-.354.502-.517.886-.502 1.182l-.207.014-.118-1.285c.236-.029.428-.236.561-.62zm-.635 2.127c.015.221-.133.738-.428 1.536l-.207.015-.044-.561c.28-.65.517-.975.679-.99zm-11.92 34.594l-.015-.163.384-.029.044.561c-.206.015-.354-.103-.413-.369zm17.031.443c-.015-.133-.074-.192-.207-.177l-.96.088-.015-.192h.089l2.275-.192.014.192c-.664.03-1.063.133-1.196.281zm-1.138-.473c.089.044.045.089 0 .118-.044-.014-.103-.059 0-.118zm.119-2.659l-1.271.104-.014-.192 1.152-.104 1.004-.251c.015.118.074.163.207.148 1.196-.207 1.078-.266 1.654-.31.192-.015.31.103.325.339l-3.057.266zm4.446-.384c-.709-.074-.754-.133-1.256-.088l-.015-.163 1.138-.103.015.162c-.119.015.31.045.118.192zm.088-.207l-.014-.162.62-.059.015.162-.621.059zm1.374-.118l-.015-.162c.104-.015.251-.089.443-.236.311-.03.473.177.503.413l-.931-.015zm1.758-.221l-.015-.192.753-.059.015.192-.753.059zm1.049-.089c-.015-.221.073-.354.265-.384l.252.325c-.015-.103.029-.162.118-.177l.192.354-.827-.118zm14.534-1.713l.015-.015v-.015s-.015.015-.015.03zm.266-.192c.118-.074.177-.148-.103-.192-.133.147.147.192-.148.206l.015.133c.029-.029.103-.073.162-.118l-.162.133v.015l-.31.399.62-.222h.074l-.03-.369-.118.015zm1.078.842l-.118.014.03.37.871-.074c-.014-.237-.591-.31-.783-.31z" fill="#f9dc3e"/></svg></svg>