<svg xmlns="http://www.w3.org/2000/svg" width="48" height="48" viewBox="0 0 256 256" fill="none" xmlns:v="https://vecta.io/nano"><svg width="256" height="256"><rect width="256" height="256" fill="#242938" rx="60"/><path fill="#fff" d="M105.552 137.283c.775-13.88 7.539-26.109 17.744-34.778 10.008-8.514 23.479-13.718 38.177-13.718 14.683 0 28.154 5.204 38.169 13.718 10.198 8.669 16.962 20.898 17.744 34.763.774 14.262-4.931 27.511-14.939 37.332-10.205 9.99-24.72 16.259-40.974 16.259s-30.798-6.269-40.996-16.259c-10.016-9.821-15.706-23.07-14.925-37.317h0z"/><path fill="#265787" d="M132.782 138.529c.397-7.122 3.868-13.397 9.104-17.845 5.135-4.369 12.047-7.039 19.589-7.039 7.534 0 14.446 2.67 19.584 7.039 5.233 4.448 8.704 10.723 9.105 17.837.397 7.318-2.53 14.116-7.665 19.156-5.237 5.126-12.684 8.342-21.024 8.342s-15.803-3.216-21.036-8.342c-5.138-5.04-8.058-11.838-7.657-19.148h0z"/><path fill="#ea7600" d="M87.09 152.92c.049 2.787.933 8.203 2.26 12.433 2.789 8.952 7.519 17.234 14.101 24.533 6.755 7.503 15.072 13.529 24.679 17.807 10.098 4.493 21.039 6.783 32.404 6.764 11.346-.015 22.287-2.35 32.385-6.877 9.607-4.32 17.917-10.372 24.66-17.878 6.578-7.33 11.301-15.627 14.097-24.579 1.406-4.524 2.294-9.115 2.65-13.721.349-4.538.203-9.084-.438-13.626-1.252-8.851-4.3-17.156-8.993-24.726-4.291-6.956-9.824-13.046-16.402-18.172l.015-.011-66.386-51.218c-.06-.045-.108-.094-.172-.136-4.356-3.36-11.68-3.348-16.47.019-4.843 3.405-5.397 9.035-1.087 12.587l-.019.019 27.689 22.624-84.393.09h-.112c-6.976.008-13.681 4.606-15.008 10.418-1.364 5.921 3.373 10.831 10.626 10.858l-.011.026 42.775-.083-76.33 58.871-.292.219c-7.201 5.54-9.528 14.752-4.993 20.582 4.603 5.929 14.39 5.94 21.665.034l41.658-34.258s-.607 4.625-.559 7.401h0zm107.047 15.487c-8.583 8.787-20.6 13.77-33.603 13.796-13.022.023-25.039-4.915-33.622-13.687-4.194-4.275-7.276-9.193-9.176-14.432-1.863-5.149-2.586-10.614-2.106-16.128.453-5.389 2.05-10.53 4.599-15.181 2.504-4.573 5.952-8.704 10.21-12.199 8.344-6.832 18.966-10.531 30.076-10.546 11.121-.015 21.736 3.649 30.088 10.459 4.25 3.48 7.695 7.597 10.199 12.161 2.56 4.648 4.145 9.77 4.617 15.175.473 5.506-.251 10.963-2.114 16.116-1.904 5.254-4.974 10.172-9.168 14.466h0z"/></svg></svg>