<svg xmlns="http://www.w3.org/2000/svg" width="48" height="48" viewBox="0 0 256 256" fill="none" xmlns:v="https://vecta.io/nano"><svg width="256" height="256"><rect width="256" height="256" rx="60" fill="#0277bd"/><path d="M53.753 102.651l2.863 31.942h71.481v-31.942H53.753zM128.095 38h-.11H48l2.904 31.942h77.191V38zm0 180.841v-33.233l-.14.037-35.574-9.605-2.274-25.476H72.821 58.043l4.475 50.154 65.43 18.164.147-.041z" fill="#ebebeb"/><path d="M167.318 134.593l-3.708 41.426-35.625 9.616v33.231l65.483-18.148.48-5.397 7.506-84.092.779-8.578L208 38h-80.015v31.942h45.009l-2.906 32.709h-42.103v31.942h39.333z" fill="#fff"/></svg></svg>