<svg xmlns="http://www.w3.org/2000/svg" viewBox="0 0 512 512" xmlns:v="https://vecta.io/nano"><style><![CDATA[#A{animation:whale-ani 5s ease-in infinite;transform-origin:50% 50%}.C{animation:second-floor-ani 5s ease-in infinite}.A{animation:third-floor-ani 5s ease-in infinite}@keyframes second-floor-ani{0%,10%{transform:translateX(-55px)}35%,55%{transform:translateX(55px)}80%,100%{transform:translateX(-55px)}} @keyframes third-floor-ani{0%,10%{transform:translateX(-167px)}45.5%,55%{transform:translateX(55px)}90%,100%{transform:translateX(-167px)}} @keyframes whale-ani{0%{transform:rotate(-20deg)}25%,40%{transform:rotate(20deg)}75%,100%{transform:rotate(-20deg)}}.D{fill:#099cec}]]></style><g id="A" class="D"><g><g class="A"><path d="M229.999 94.975h47.506V138.6h-47.506z"/></g><g class="C"><path d="M117.738 147.225h47.505v43.193h-47.505z"/><path d="M173.869 147.225h47.506v43.193h-47.506z"/><path d="M229.999 147.225h47.506v43.193h-47.506z"/></g><g><path d="M61.68 199.043h47.506v42.691H61.68z"/><path d="M117.738 199.043h47.505v42.691h-47.505z"/><path d="M173.869 199.043h47.506v42.691h-47.506z"/><path d="M229.999 199.115h47.506v42.69h-47.506z"/><path d="M286.2 199.043h47.507v42.691H286.2z"/></g></g><path d="M476.441 219.095c-10.35-6.972-34.21-9.487-52.537-6.036-2.371-17.249-12.003-32.27-29.538-45.782l-10.062-6.685-6.685 10.062c-13.225 19.98-16.817 52.896-2.658 74.602-6.252 3.377-18.545 7.978-34.786 7.689H27.757c-6.252 36.511 4.169 83.945 31.624 116.501 26.663 31.551 66.623 47.579 118.872 47.579 113.124 0 196.851-52.104 236.021-146.76 15.381.288 48.584.073 65.618-32.483 1.078-1.797 4.743-9.488 6.107-12.291l-9.558-6.396z"/></g></svg>