<svg xmlns="http://www.w3.org/2000/svg" width="48" height="48" viewBox="0 0 256 256" fill="none" xmlns:v="https://vecta.io/nano"><svg width="256" height="256"><rect width="256" height="256" fill="#242938" rx="60"/><path d="M228 182.937a12.73 12.73 0 0 1-9.035-.006 12.74 12.74 0 0 1-6.756-5.999c-9.063-13.567-19.071-26.522-28.69-39.755l-4.171-5.56c-11.454 15.346-22.908 30.08-33.361 45.371a12.23 12.23 0 0 1-15.012 5.894l42.98-57.659-39.978-52.099a13.29 13.29 0 0 1 15.847 5.56c9.285 13.567 19.572 26.522 29.802 40.256l29.97-40.089a11.95 11.95 0 0 1 14.901-5.56l-15.513 20.573-21.017 27.356a5.56 5.56 0 0 0 0 8.285L228 182.937h0zM28 124.5c1.168-5.56 1.89-11.621 3.503-17.292 9.619-34.195 48.819-48.429 75.785-27.245 15.791 12.399 19.739 29.97 18.961 49.764H37.286C35.84 165.09 61.362 186.441 94 175.543c5.294-1.894 10.034-5.076 13.791-9.26a33.86 33.86 0 0 0 7.727-14.705c1.724-5.56 4.504-6.505 9.786-4.893-.87 6.769-3.263 13.253-7 18.964a45.14 45.14 0 0 1-14.573 14.008c-9.673 5.29-20.77 7.385-31.705 5.987s-21.148-6.218-29.179-13.771c-7.945-8.933-12.748-20.219-13.678-32.138 0-1.89-.723-3.781-1.112-5.56L28 124.5zm9.397-2.391h80.456c-.501-25.632-16.681-43.814-38.254-43.981-24.02-.334-41.201 17.459-42.258 43.87l.056.111z" fill="#fff"/></svg></svg>