<svg xmlns="http://www.w3.org/2000/svg" width="48" height="48" viewBox="0 0 256 256" fill="none" xmlns:v="https://vecta.io/nano"><style><![CDATA[.E{stroke-width:7.348}.F{stroke-linejoin:round}.G{stroke-linecap:round}.H{stroke:#2088ff}]]></style><svg width="256" height="256"><rect width="256" height="256" rx="60" fill="#242938"/><path d="M76.065 43c18.262 0 33.065 14.803 33.065 33.065S94.327 109.13 76.065 109.13 43 94.327 43 76.065 57.803 43 76.065 43zm47.761 66.13c12.174 0 22.044 9.87 22.044 22.044s-9.87 22.043-22.044 22.043-22.043-9.869-22.043-22.043 9.869-22.044 22.043-22.044zm0 58.783c12.174 0 22.044 9.869 22.044 22.044S136 212 123.826 212s-22.043-9.869-22.043-22.043 9.869-22.044 22.043-22.044z" class="E F H"/><path d="M189.957 167.913c12.174 0 22.043 9.869 22.043 22.044S202.131 212 189.957 212s-22.044-9.869-22.044-22.043 9.869-22.044 22.044-22.044z" stroke="#79b8ff" class="E F"/><g class="H"><path d="M131.308 126.056l-11.276 11.261-5.477-5.458" class="E F G"/><path d="M189.957 109.13c12.174 0 22.043 9.87 22.043 22.044s-9.869 22.043-22.043 22.043-22.044-9.869-22.044-22.043 9.869-22.044 22.044-22.044z" class="E F"/><path d="M197.438 126.056l-11.276 11.261-5.476-5.458" class="E F G"/><path d="M65.043 64.353c0-2.892 3.186-4.65 5.632-3.109l18.785 11.834c2.297 1.447 2.285 4.8-.022 6.231L70.653 90.957c-2.447 1.517-5.61-.243-5.61-3.123V64.353z" class="E F"/><path d="M72.391 109.13v55.109c0 14.203 11.673 25.717 25.717 25.717h3.674" class="E F G"/></g><path d="M101.595 134.847c2.029 0 3.674-1.644 3.674-3.674s-1.645-3.673-3.674-3.673v7.347zm-32.878-25.588c0 14.132 11.456 25.588 25.588 25.588V127.5c-10.074 0-18.24-8.167-18.24-18.241h-7.348zm25.588 25.588h7.29V127.5h-7.29v7.347z" fill="#2088ff"/><path d="M146.071 131.174h21.84" class="E F G H"/><path d="M116.478 186.283c2.028 0 3.674 1.646 3.674 3.674s-1.646 3.674-3.674 3.674-3.674-1.644-3.674-3.674 1.647-3.674 3.674-3.674zm14.696 0c2.027 0 3.674 1.646 3.674 3.674s-1.647 3.674-3.674 3.674-3.674-1.644-3.674-3.674 1.647-3.674 3.674-3.674z" fill-rule="evenodd" fill="#79b8ff"/><path d="M164.257 189.981l-3.72.122" stroke="#79b8ff" class="E G"/></svg></svg>