<svg xmlns="http://www.w3.org/2000/svg" width="48" height="48" viewBox="0 0 256 256" fill="none" xmlns:v="https://vecta.io/nano"><svg width="256" height="256"><rect width="256" height="256" fill="#e14e1d" rx="60"/><path fill="#fff" d="M48 38l8.61 96.593h110.71l-3.715 41.43-35.646 9.638-35.579-9.624-2.379-26.602H57.939l4.585 51.281 65.427 18.172 65.51-18.172 8.783-98.061H85.824l-2.923-32.71h122.14.098L208 38H48z"/><path d="M128 38H48l8.61 96.593H128v-31.938H85.824l-2.923-32.71H128V38zm0 147.647l-.041.014-35.579-9.624-2.379-26.602H57.939l4.585 51.281 65.427 18.172.049-.014v-33.227z" fill="#ebebeb"/></svg></svg>