<svg xmlns="http://www.w3.org/2000/svg" width="48" height="48" viewBox="0 0 256 256" fill="none" xmlns:v="https://vecta.io/nano"><svg width="256" height="256"><rect width="256" height="256" fill="#242938" rx="60"/><path fill="#007fff" fill-rule="evenodd" d="M192.031 157.671a5.21 5.21 0 0 0 2.615-4.5l.094-30.141a5.2 5.2 0 0 1 2.614-4.5l16.339-9.385a5.21 5.21 0 0 1 2.602-.692c.913.002 1.81.243 2.6.701a5.2 5.2 0 0 1 1.903 1.905 5.21 5.21 0 0 1 .697 2.602v54.796c0 .917-.242 1.816-.701 2.609s-1.119 1.451-1.914 1.907l-61.661 35.417a5.21 5.21 0 0 1-5.177.005l-48.391-27.677c-.797-.456-1.46-1.113-1.921-1.907s-.704-1.696-.704-2.614v-27.63c0-.031.037-.052.068-.037s.062 0 .062-.036v-.031c0-.021.011-.042.032-.052l39.854-22.896c.036-.021.02-.078-.021-.078-.011 0-.022-.005-.03-.013s-.012-.018-.012-.029l.078-27.089a5.2 5.2 0 0 0-.69-2.611c-.455-.795-1.113-1.455-1.905-1.915s-1.692-.702-2.608-.703-1.816.24-2.609.698l-29.62 17.068c-.791.455-1.687.695-2.599.695a5.21 5.21 0 0 1-2.599-.695L68.714 93.734c-.792-.456-1.689-.696-2.603-.695s-1.811.241-2.602.698-1.448 1.114-1.905 1.905-.698 1.688-.698 2.602v48.958c.001.913-.239 1.809-.694 2.6s-1.11 1.449-1.899 1.907a5.2 5.2 0 0 1-2.597.705c-.913.003-1.81-.233-2.602-.686l-16.49-9.427c-.799-.456-1.462-1.116-1.923-1.912s-.703-1.699-.702-2.619l.146-85.573a5.21 5.21 0 0 1 .701-2.598c.457-.79 1.113-1.445 1.903-1.901a5.21 5.21 0 0 1 5.198-.006l56.484 32.443a5.21 5.21 0 0 0 5.188 0l56.469-32.443c.792-.455 1.69-.694 2.603-.692a5.21 5.21 0 0 1 4.504 2.61c.456.792.695 1.689.695 2.603v85.593a5.21 5.21 0 0 1-.699 2.608c-.458.793-1.117 1.451-1.911 1.908l-29.573 17.031c-.794.458-1.453 1.118-1.911 1.912a5.21 5.21 0 0 0-.696 2.613c.002.916.246 1.816.708 2.609s1.124 1.448 1.92 1.903l16.313 9.286c.788.449 1.68.684 2.587.682s1.798-.24 2.585-.692l34.817-19.995h0zm3.422-76.781c.001.921.246 1.825.71 2.621s1.131 1.454 1.933 1.907 1.709.687 2.63.675a5.21 5.21 0 0 0 2.613-.74l15.625-9.375a5.21 5.21 0 0 0 1.853-1.898c.444-.782.677-1.666.678-2.565V52.411a5.22 5.22 0 0 0-.712-2.619c-.465-.795-1.132-1.452-1.933-1.905a5.21 5.21 0 0 0-5.241.066l-15.625 9.375c-.771.462-1.41 1.116-1.853 1.898s-.677 1.666-.678 2.565v19.104-.005z"/></svg></svg>