<svg xmlns="http://www.w3.org/2000/svg" width="48" height="48" viewBox="0 0 256 256" fill="none" xmlns:v="https://vecta.io/nano"><svg width="256" height="256"><rect width="256" height="256" fill="#242938" rx="60"/><path fill="#fff" d="M121.451 28.054l-3.031.274c-28.406 2.561-55.014 17.889-71.867 41.447-9.384 13.099-15.386 27.957-17.654 43.695-.802 5.494-.899 7.117-.899 14.565s.098 9.072.899 14.565c5.435 37.556 32.16 69.111 68.407 80.802 6.491 2.092 13.333 3.519 21.114 4.379 3.031.332 16.129.332 19.16 0 13.431-1.486 24.809-4.809 36.031-10.538 1.72-.879 2.053-1.114 1.818-1.309-.156-.118-7.488-9.952-16.285-21.838l-15.992-21.603-20.04-29.658-20.176-29.639c-.078-.019-.156 13.158-.195 29.248l-.43 29.97c-.508.958-.899 1.349-1.721 1.78-.625.312-1.173.371-4.125.371h-3.382l-.899-.567a3.65 3.65 0 0 1-1.31-1.427l-.411-.88.039-39.198.059-39.218.606-.763c.313-.41.978-.938 1.447-1.193.802-.391 1.114-.43 4.497-.43 3.989 0 4.653.156 5.689 1.29.293.313 11.143 16.657 24.125 36.344l39.452 59.765 15.836 23.989.802-.528c7.096-4.614 14.604-11.183 20.547-18.026 12.649-14.526 20.802-32.238 23.539-51.124.801-5.493.899-7.116.899-14.565s-.098-9.071-.899-14.565c-5.435-37.556-32.161-69.11-68.407-80.801-6.393-2.072-13.196-3.5-20.821-4.36-1.877-.195-14.8-.411-16.422-.254zm40.938 60.489c.938.469 1.701 1.368 1.975 2.307.156.508.195 11.379.156 35.875l-.059 35.152-6.197-9.502-6.217-9.501v-25.552l.195-26.257c.313-1.095.997-1.955 1.936-2.463.801-.41 1.095-.45 4.164-.45 2.894 0 3.402.039 4.047.391z"/></svg></svg>