<svg xmlns="http://www.w3.org/2000/svg" width="48" height="48" viewBox="0 0 256 256" fill="none" xmlns:v="https://vecta.io/nano"><svg width="256" height="256"><rect width="256" height="256" fill="#242938" rx="60"/><path d="M119.878 31.116c4.919-2.816 11.325-2.828 16.239 0l74.17 41.894c4.65 2.619 7.759 7.793 7.712 13.15v84.045c.035 5.579-3.382 10.877-8.287 13.436l-73.907 41.695c-5.019 2.87-11.554 2.649-16.418-.457l-22.175-12.822c-1.51-.9-3.212-1.616-4.278-3.08.942-1.27 2.627-1.428 3.996-1.983 3.083-.981 5.916-2.555 8.748-4.082.717-.49 1.591-.302 2.278.136l18.917 10.937c1.352.781 2.721-.256 3.877-.9l72.567-40.952c.896-.431 1.391-1.382 1.318-2.363l.009-83.179c.102-1.113-.542-2.137-1.549-2.593l-73.65-41.511a2.56 2.56 0 0 0-2.892-.005L52.912 84.011c-1.003.457-1.676 1.464-1.557 2.581v83.183c-.087.981.446 1.912 1.335 2.334l19.668 11.107c3.693 1.987 8.228 3.169 12.297 1.646 3.591-1.288 6.108-4.953 6.039-8.765l.025-82.689c-.089-1.224 1.071-2.235 2.261-2.119l9.448.008c1.314-.03 2.218 1.288 2.056 2.52l-.021 83.213c.008 7.393-3.029 15.437-9.867 19.054-8.424 4.363-18.835 3.438-27.157-.746-7.204-3.596-14.08-7.84-21.156-11.692-4.918-2.545-8.318-7.864-8.283-13.439V86.161c-.052-5.468 3.182-10.736 7.976-13.316l73.902-41.728zm21.494 58.219c10.745-.692 22.248-.41 31.917 4.883 7.487 4.057 11.637 12.57 11.769 20.887-.209 1.121-1.382 1.74-2.453 1.663-3.117-.004-6.236.043-9.353-.021-1.323.051-2.091-1.168-2.257-2.337-.896-3.98-3.067-7.921-6.812-9.841-5.75-2.878-12.416-2.733-18.686-2.673-4.577.242-9.499.639-13.377 3.33-2.977 2.039-3.881 6.155-2.819 9.47 1.002 2.38 3.749 3.148 5.998 3.856 12.949 3.387 26.671 3.049 39.373 7.506 5.259 1.817 10.403 5.35 12.203 10.856 2.355 7.38 1.323 16.2-3.928 22.124-4.258 4.875-10.459 7.529-16.644 8.97-8.228 1.835-16.767 1.882-25.123 1.067-7.857-.896-16.034-2.96-22.099-8.313-5.187-4.504-7.72-11.522-7.469-18.294.06-1.144 1.199-1.942 2.295-1.848l9.418.005c1.255-.09 2.184.994 2.249 2.176.578 3.791 2.003 7.771 5.31 10.018 6.38 4.117 14.387 3.835 21.693 3.95 6.053-.268 12.848-.349 17.787-4.35 2.606-2.282 3.378-6.1 2.674-9.384-.763-2.773-3.664-4.065-6.155-4.91-12.783-4.043-26.659-2.576-39.318-7.149-5.14-1.816-10.11-5.25-12.084-10.53-2.755-7.473-1.493-16.717 4.308-22.441 5.656-5.694 13.82-7.887 21.583-8.672h0" fill="#81cd39"/></svg></svg>