<svg xmlns="http://www.w3.org/2000/svg" width="48" height="48" viewBox="0 0 256 256" fill="none" xmlns:v="https://vecta.io/nano"><style><![CDATA[.B{stroke-width:5.034}.C{stroke-linecap:round}.D{stroke-linejoin:round}]]></style><svg width="256" height="256"><rect width="256" height="256" fill="#242938" rx="60"/><path fill="#336791" d="M203.48 148.688c-20.32 4.19-21.796-2.693-21.796-2.693 21.466-31.852 30.445-72.282 22.696-82.175-21.121-27-57.691-14.224-58.303-13.894l-.197.035c-4.466-.896-9.007-1.369-13.563-1.413-9.197-.141-16.172 2.412-21.473 6.427 0 0-65.236-26.873-62.199 33.799.647 12.91 18.492 97.735 39.797 72.071 7.847-9.436 15.37-17.361 15.37-17.361 3.727 2.482 8.206 3.748 12.896 3.291l.365-.309c-.107 1.215-.057 2.439.148 3.642-5.484 6.131-3.867 7.207-14.836 9.464-11.095 2.285-4.57 6.356-.323 7.425 5.161 1.294 17.1 3.122 25.172-8.17l-.324 1.286c2.152 1.723 3.656 11.201 3.403 19.793s-.422 14.485 1.266 19.097 3.375 14.977 17.789 11.953c12.045-2.58 18.281-9.281 19.16-20.432.619-7.932 2.011-6.765 2.11-13.852l1.125-3.361c1.286-10.758.21-14.224 7.628-12.607l1.807.162c5.464.246 12.615-.879 16.805-2.827 9.035-4.19 14.393-11.194 5.484-9.351h-.007z"/><g stroke="#fff"><g class="B C"><path d="M146.07 48.596c-2.25.703 36.31-14.098 58.233 13.908 7.735 9.893-1.23 50.323-22.697 82.174m-53.508 9.106c-.562 20.011.141 40.162 2.096 45s6.152 14.414 20.573 11.334c12.045-2.58 16.432-7.58 18.331-18.612l4.45-35.275-45.45-2.447zM110.816 53.469S45.538 26.778 48.575 87.451c.647 12.909 18.492 97.734 39.797 72.07 7.776-9.373 14.808-16.706 14.808-16.706l7.636-89.346z" class="D"/><path stroke-linejoin="bevel" d="M181.613 144.664s1.407 6.891 21.797 2.686c8.909-1.842 3.544 5.161-5.484 9.352-7.411 3.445-24.033 4.324-24.307-.422-.703-12.27 8.747-8.543 8.065-11.616-.619-2.77-4.852-5.484-7.636-12.262-2.44-5.907-33.469-51.258 8.606-44.529 1.547-.316-10.969-40.078-50.344-40.655s-38.13 48.41-38.13 48.41"/></g><g class="D"><path d="M117.08 148.869c-5.484 6.131-3.867 7.207-14.835 9.464-11.096 2.285-4.571 6.356-.324 7.425 5.161 1.294 17.1 3.122 25.172-8.178 2.461-3.445-.014-8.929-3.389-10.321-1.631-.675-3.811-1.519-6.609 1.617l-.015-.007z" class="B"/><path d="M116.722 148.763c-.563-3.607 1.181-7.889 3.044-12.909 2.799-7.523 9.254-15.047 4.093-38.932-3.846-17.789-29.672-3.705-29.672-1.294s1.167 12.235-.422 23.66c-2.088 14.921 9.492 27.535 22.823 26.248" class="B C"/></g><g fill="#fff"><path stroke-width="1.68" d="M110.577 95.27c-.12.823 1.511 3.024 3.628 3.319s3.923-1.42 4.043-2.25-1.512-1.73-3.628-2.025-3.938.141-4.043.956h0z"/><path stroke-width=".837" d="M175.011 93.589c.112.823-1.512 3.023-3.628 3.319s-3.938-1.42-4.043-2.25 1.512-1.73 3.628-2.025 3.937.141 4.043.956z"/></g><path d="M182.577 87.887c.351 6.469-1.393 10.863-1.618 17.747-.323 9.998 4.768 21.445-2.904 32.906" class="B C D"/></g></svg></svg>