<svg xmlns="http://www.w3.org/2000/svg" width="48" height="48" viewBox="0 0 256 256" fill="none" xmlns:v="https://vecta.io/nano"><style><![CDATA[.B{fill:#ff6c37}.C{fill:#eee}]]></style><svg width="256" height="256"><rect width="256" height="256" rx="60" class="B"/><path d="M169.061 88.612l-50.54 50.541-14.253-14.252c49.703-49.702 54.614-45.391 64.793-36.289z" class="C"/><path d="M118.521 140.35c-.36 0-.599-.119-.839-.359l-14.372-14.252c-.479-.479-.479-1.197 0-1.676 50.541-50.542 55.81-45.751 66.47-36.17.24.24.359.479.359.839a1.08 1.08 0 0 1-.359.838l-50.541 50.422c-.119.24-.479.359-.718.359zm-12.576-15.449l12.576 12.575 48.744-48.744c-8.862-7.905-14.851-10.3-61.32 36.169z" class="B"/><path d="M133.012 153.645l-13.773-13.773 50.541-50.541c13.534 13.652-6.707 35.81-36.768 64.314z" class="C"/><path d="M133.012 154.843c-.36 0-.598-.12-.838-.36l-13.773-13.773c-.24-.239-.24-.479-.24-.838s.12-.599.36-.839l50.54-50.54c.479-.479 1.198-.479 1.677 0 3.114 2.874 4.791 6.946 4.671 11.138-.239 13.294-15.33 30.181-41.439 54.853-.359.24-.719.36-.958.36zm-12.096-14.971l12.096 12.096c20.121-19.162 39.642-38.804 39.762-52.337.12-3.114-1.077-6.227-3.114-8.623l-48.744 48.865z" class="B"/><path d="M104.508 125.26l10.18 10.18c.239.24.239.479 0 .719-.12.12-.12.12-.239.12l-21.08 4.551c-1.077.12-2.036-.599-2.275-1.677-.12-.599.12-1.197.479-1.557l12.216-12.216c.24-.24.599-.36.719-.12z" class="C"/><path d="M93.01 142.028c-1.796 0-3.114-1.438-3.114-3.235 0-.837.359-1.676.958-2.275l12.215-12.216a1.82 1.82 0 0 1 2.396 0l10.18 10.18c.718.599.718 1.677 0 2.395-.24.24-.479.36-.839.48l-21.078 4.551c-.24 0-.479.12-.719.12zm11.139-15.451l-11.737 11.737c-.239.24-.359.599-.12.958.12.36.478.48.838.36l19.761-4.312-8.742-8.743z" class="B"/><path d="M195.769 60.588c-7.665-7.425-20.001-7.186-27.427.599s-7.185 20 .599 27.426a19.35 19.35 0 0 0 23.475 2.635l-13.654-13.653 17.007-17.007z" class="C"/><path d="M182.355 95.2c-11.377 0-20.599-9.222-20.599-20.599S170.978 54 182.355 54c5.27 0 10.42 2.036 14.252 5.749.24.24.36.479.36.838s-.12.599-.36.839l-16.168 16.168 12.695 12.695c.48.479.48 1.198 0 1.677l-.239.24a20.32 20.32 0 0 1-10.54 2.994zm0-38.684c-10.06 0-18.204 8.144-18.084 18.204 0 10.061 8.143 18.204 18.204 18.085 2.755 0 5.509-.599 8.024-1.917l-12.575-12.455c-.24-.24-.359-.479-.359-.838s.119-.599.359-.838l16.049-16.048c-3.234-2.754-7.306-4.192-11.618-4.192z" class="B"/><path d="M196.128 60.947l-.239-.24-17.127 16.887 13.534 13.534c1.318-.838 2.634-1.796 3.713-2.874 7.664-7.546 7.664-19.762.119-27.307z" class="C"/><path d="M192.416 92.445c-.36 0-.599-.12-.839-.359l-13.653-13.653c-.24-.24-.359-.479-.359-.839s.119-.599.359-.838l17.006-17.007c.48-.479 1.198-.479 1.677 0l.36.24c8.024 8.024 8.024 20.959.12 29.103-1.198 1.197-2.516 2.275-3.953 3.114-.359.12-.598.24-.718.24zm-11.977-14.851l12.097 12.096c.958-.598 1.916-1.437 2.634-2.155 6.827-6.827 7.186-17.965.599-25.151l-15.33 15.21z" class="B"/><path d="M171.098 90.767c-2.875-2.874-7.546-2.874-10.42 0l-45.152 45.152 7.546 7.545 47.786-41.917c3.114-2.636 3.353-7.307.719-10.42-.24-.12-.36-.239-.479-.359z" class="C"/><path d="M122.952 144.662a1.09 1.09 0 0 1-.839-.359l-7.545-7.545c-.479-.479-.479-1.198 0-1.677l45.151-45.152a8.53 8.53 0 1 1 12.097 12.097l-.359.359-47.787 41.918c-.119.239-.359.359-.718.359zm-5.749-8.743l5.869 5.869 46.948-41.2c2.634-2.156 2.874-6.108.718-8.742s-6.108-2.874-8.743-.719c-.119.12-.239.239-.479.359l-44.313 44.433z" class="B"/><path d="M80.914 187.3c-.479.239-.719.718-.599 1.197l2.036 8.624c.479 1.197-.24 2.635-1.557 2.994-.958.359-2.036 0-2.635-.718l-13.174-13.055 42.996-42.996 14.851.239 10.06 10.061c-2.395 2.036-16.887 16.048-51.978 33.654z" class="C"/><path d="M79.956 201.311c-.958 0-1.916-.359-2.515-1.077l-13.054-13.055c-.239-.239-.359-.479-.359-.838s.12-.599.359-.839l42.996-42.995c.24-.24.599-.36.839-.36l14.851.24c.359 0 .598.12.837.359l10.061 10.06c.24.24.359.599.359.958s-.119.599-.479.839l-.838.719c-12.695 11.137-29.942 22.276-51.379 32.935l2.036 8.503c.359 1.557-.359 3.234-1.797 4.072-.719.359-1.318.479-1.917.479zm-13.174-14.97l12.336 12.216c.359.599 1.077.838 1.676.479s.838-1.078.479-1.677l-2.036-8.623a2.18 2.18 0 0 1 1.197-2.515c21.198-10.659 38.325-21.677 50.9-32.576l-8.862-8.863-13.773-.24-41.919 41.799z" class="B"/><path d="M54.805 196.641l10.3-10.3 15.33 15.33-24.432-1.676c-1.078-.12-1.797-1.078-1.677-2.157 0-.479.12-.958.479-1.197z" class="C"/><path d="M80.435 202.749l-24.552-1.677c-1.797-.12-2.995-1.676-2.875-3.473.12-.719.359-1.437.958-1.916l10.3-10.3c.479-.479 1.198-.479 1.676 0l15.33 15.33c.359.359.479.838.24 1.318s-.599.718-1.078.718zm-15.33-14.731l-9.462 9.461c-.359.24-.359.839 0 1.078.12.12.24.24.479.24l21.198 1.437-12.216-12.216zm38.684-39.163c-.719 0-1.198-.599-1.198-1.198 0-.359.12-.598.36-.838l11.617-11.617c.479-.48 1.198-.48 1.677 0l7.545 7.545c.359.359.479.718.359 1.198-.12.359-.479.718-.957.838l-19.163 4.072h-.24zm11.617-11.138l-7.904 7.905 12.934-2.756-5.03-5.149z" class="B"/><path d="M122.832 143.584l-13.174 2.875c-.958.24-1.917-.359-2.156-1.317-.12-.599 0-1.198.479-1.677l7.305-7.306 7.546 7.425z" class="C"/><path d="M109.418 147.657c-1.677 0-2.994-1.317-2.994-2.994 0-.838.359-1.557.838-2.155l7.306-7.306c.479-.48 1.198-.48 1.677 0l7.545 7.545c.359.359.479.718.359 1.198-.12.359-.479.718-.957.838l-13.175 2.874h-.599zm5.988-9.94l-6.467 6.467c-.239.24-.239.479-.12.719s.36.359.719.359l11.018-2.396-5.15-5.149zm80.842-65.274c-.239-.718-1.078-1.077-1.797-.838s-1.077 1.077-.837 1.796c0 .12.119.239.119.359.718 1.438.48 3.234-.479 4.551-.479.599-.359 1.438.12 1.917.599.478 1.437.359 1.916-.24 1.797-2.276 2.156-5.15.958-7.546z" class="B"/></svg></svg>