<svg xmlns="http://www.w3.org/2000/svg" width="48" height="48" viewBox="0 0 256 256" fill="none" xmlns:v="https://vecta.io/nano"><svg width="256" height="256"><g clip-path="url(#A)"><path d="M196 0H60C26.863 0 0 26.863 0 60v136c0 33.137 26.863 60 60 60h136c33.137 0 60-26.863 60-60V60c0-33.137-26.863-60-60-60z" fill="#242938"/><path d="M127.5 206.25c43.492 0 78.75-35.258 78.75-78.75s-35.258-78.75-78.75-78.75-78.75 35.258-78.75 78.75 35.258 78.75 78.75 78.75z" fill="#f47421"/><path d="M127.5 165.694c21.094 0 38.194-17.1 38.194-38.194s-17.1-38.194-38.194-38.194-38.194 17.1-38.194 38.194 17.1 38.194 38.194 38.194z" stroke="#fff" stroke-width="8.55"/><path d="M73.95 142.266A14.77 14.77 0 0 0 88.716 127.5a14.77 14.77 0 0 0-14.766-14.766A14.77 14.77 0 0 0 59.184 127.5a14.77 14.77 0 0 0 14.766 14.766z" fill="#f47421"/><path d="M157.25 127.5h17.5-17.5z" fill="#000"/><path d="M157.25 127.5h17.5" stroke="#f47421" stroke-width="3.238"/><path d="M73.95 138.013c5.806 0 10.513-4.707 10.513-10.513s-4.707-10.513-10.513-10.513-10.513 4.707-10.513 10.513 4.707 10.513 10.513 10.513z" fill="#fff"/><path d="M141.487 73.742a14.77 14.77 0 0 0 5.405 20.17 14.77 14.77 0 0 0 20.17-5.405 14.77 14.77 0 0 0-5.404-20.171 14.77 14.77 0 0 0-20.171 5.405z" fill="#f47421"/><path d="M112.625 153.264l-8.75 15.156 8.75-15.156z" fill="#000"/><path d="M112.625 153.264l-8.75 15.156" stroke="#f47421" stroke-width="3.238"/><path d="M145.17 75.868c-2.903 5.028-1.18 11.458 3.848 14.361s11.458 1.18 14.361-3.848 1.18-11.458-3.848-14.361-11.458-1.18-14.361 3.848z" fill="#fff"/><path d="M167.062 166.493a14.77 14.77 0 0 0-20.17-5.405 14.77 14.77 0 0 0-5.405 20.171 14.77 14.77 0 0 0 20.171 5.404c7.062-4.077 9.482-13.108 5.404-20.17z" fill="#f47421"/><path d="M112.625 101.736l-8.75-15.156 8.75 15.156z" fill="#000"/><path d="M112.625 101.736l-8.75-15.156" stroke="#f47421" stroke-width="3.238"/><path d="M163.379 168.619c-2.903-5.028-9.332-6.751-14.361-3.848s-6.751 9.333-3.848 14.361 9.333 6.751 14.361 3.848 6.751-9.332 3.848-14.361z" fill="#fff"/></g><defs><clipPath id="A"><path fill="#fff" d="M0 0h256v256H0z"/></clipPath></defs></svg></svg>