<svg xmlns="http://www.w3.org/2000/svg" width="48" height="48" viewBox="0 0 256 256" fill="none" xmlns:v="https://vecta.io/nano"><svg width="256" height="256"><rect width="256" height="256" rx="60" fill="#242938"/><path d="M227.088 57.602l-93.832 167.787c-1.938 3.465-6.915 3.485-8.881.038L28.682 57.618c-2.142-3.757 1.07-8.307 5.327-7.546l93.932 16.79a5.1 5.1 0 0 0 1.812-.003l91.968-16.763c4.243-.773 7.47 3.742 5.366 7.506z" fill="url(#A)"/><path d="M172.687 28.049l-69.438 13.606a2.55 2.55 0 0 0-2.055 2.352l-4.272 72.141a2.55 2.55 0 0 0 3.118 2.635l19.333-4.461c1.809-.417 3.443 1.176 3.072 2.995l-5.744 28.126c-.387 1.893 1.391 3.511 3.239 2.95l11.941-3.628c1.851-.562 3.63 1.061 3.238 2.956l-9.128 44.179c-.571 2.764 3.105 4.271 4.638 1.901l1.024-1.582 56.582-112.92c.948-1.891-.686-4.047-2.763-3.646l-19.899 3.841c-1.87.361-3.461-1.381-2.934-3.211l12.989-45.025c.528-1.833-1.069-3.576-2.941-3.209z" fill="url(#B)"/><defs><linearGradient id="A" x1="26.346" y1="44.075" x2="143.127" y2="202.673" gradientUnits="userSpaceOnUse"><stop stop-color="#41d1ff"/><stop offset="1" stop-color="#bd34fe"/></linearGradient><linearGradient id="B" x1="122.551" y1="31.743" x2="143.676" y2="176.66" gradientUnits="userSpaceOnUse"><stop stop-color="#ffea83"/><stop offset=".083" stop-color="#ffdd35"/><stop offset="1" stop-color="#ffa800"/></linearGradient></defs></svg></svg>