<svg xmlns="http://www.w3.org/2000/svg" width="48" height="48" viewBox="0 0 256 256" fill="none" xmlns:v="https://vecta.io/nano"><svg width="256" height="256"><rect width="256" height="256" fill="#242938" rx="60"/><path fill="#2489ca" d="M33.716 100.208s-4.734-3.413.947-7.97l13.237-11.836s3.788-3.985 7.792-.513l122.149 92.479v44.346s-.059 6.964-8.996 6.194l-135.128-122.7z"/><path fill="#1070b3" d="M65.2 128.792l-31.484 28.623s-3.235 2.407 0 6.708l14.618 13.295s3.472 3.729 8.601-.513l33.378-25.309L65.2 128.792z"/><path fill="#0877b9" d="M120.474 129.029l57.741-44.09-.375-44.109s-2.466-9.627-10.692-4.616l-76.836 69.931 30.162 22.884z"/><path fill="#3c99d4" d="M168.844 222.968c3.354 3.432 7.418 2.308 7.418 2.308l44.997-22.173c5.76-3.926 4.951-8.798 4.951-8.798V61.898c0-5.819-5.958-7.832-5.958-7.832l-38.999-18.8c-8.522-5.267-14.105.947-14.105.947s7.18-5.168 10.692 4.616v175.075c0 1.204-.257 2.387-.769 3.453-1.026 2.071-3.255 4.004-8.601 3.195l.374.415z"/></svg></svg>