<svg width="215" height="208" fill="none" xmlns="http://www.w3.org/2000/svg"><path d="M119.402 159.778c0 26.571-21.557 48.113-48.15 48.113-26.598 0-48.154-21.542-48.154-48.113 0-26.571 21.556-48.113 48.153-48.113 26.594 0 48.151 21.542 48.151 48.113Z" fill="#F60"/><path d="M214.648 92.42c0 26.568-21.557 48.113-48.15 48.113-26.598 0-48.154-21.545-48.154-48.113 0-26.571 21.556-48.117 48.154-48.117 26.593 0 48.15 21.546 48.15 48.117Z" fill="#FC0"/><path d="M96.935 91.353c0 26.568-21.557 48.113-48.154 48.113-26.59 0-48.15-21.545-48.15-48.113 0-26.57 21.56-48.116 48.15-48.116 26.597 0 48.154 21.545 48.154 48.116Z" fill="#0089CC"/><path d="M193.247 159.778c0 26.571-21.557 48.113-48.157 48.113-26.59 0-48.15-21.542-48.15-48.113 0-26.571 21.56-48.113 48.15-48.113 26.6 0 48.157 21.542 48.157 48.113Z" fill="#009939"/><path d="M155.79 48.583c0 26.57-21.56 48.113-48.154 48.113-26.593 0-48.154-21.542-48.154-48.113C59.482 22.012 81.042.47 107.636.47c26.594 0 48.154 21.542 48.154 48.113Z" fill="#BF0000"/><path d="M118.344 92.421c0 1.012.088 2.003.152 3.001 21.358-4.923 37.299-24.003 37.299-46.84 0-1.012-.088-2.006-.152-3.004-21.359 4.927-37.299 24.007-37.299 46.843Z" fill="#FC0007"/><path d="M124.689 116.244c8.299 14.495 23.894 24.289 41.804 24.289 7.3 0 14.194-1.672 20.395-4.578-8.295-14.495-23.889-24.289-41.803-24.289-7.3 0-14.194 1.672-20.396 4.578Z" fill="#1CD306"/><path d="M96.94 159.777c0 11.755 4.228 22.512 11.238 30.867 7.004-8.355 11.232-19.112 11.232-30.867 0-11.755-4.228-22.511-11.232-30.866-7.01 8.355-11.239 19.111-11.239 30.866Z" fill="#0F7504"/><path d="M29.715 135.527a47.968 47.968 0 0 0 19.064 3.939c17.734 0 33.184-9.603 41.543-23.862a47.979 47.979 0 0 0-19.065-3.936c-17.734 0-33.187 9.603-41.542 23.859Z" fill="#0C5E87"/><path d="M59.69 44.525c-.112 1.34-.208 2.687-.208 4.059 0 22.819 15.916 41.881 37.25 46.826.11-1.34.205-2.688.205-4.056 0-22.819-15.912-41.888-37.246-46.83Z" fill="#6B0001"/><path d="M64.184 153.825h-7.532c-6.65 0-12.058-5.386-12.058-12.013V73.688c0-6.627 5.407-12.016 12.058-12.016h94.454c6.65 0 12.054 5.39 12.054 12.016v68.124c0 6.627-5.404 12.013-12.054 12.013h-32.178l-64.56 31.621 9.816-31.621Z" fill="#fff"/></svg>